<svg id="Capa_1" data-name="Capa 1" fill="#FFC500" xmlns="http://www.w3.org/2000/svg" viewBox="0 0 501.84 537.12"><path d="M263.39,537.12h-25.9c-.7-.13-1.39-.32-2.09-.39-6.84-.65-13.7-1.11-20.51-2a251,251,0,0,1-60.65-15.45c-31.76-12.43-60-30.35-83.6-55.07C43.7,436.08,26.09,403.09,20,364.31a22.38,22.38,0,0,1,3.7-16.87c.31-.45.6-.91.94-1.44a68.49,68.49,0,0,1-12.25-21.1,52.32,52.32,0,0,1-2.25-24.37H2.58c-.56-2.19-1.09-4.34-1.66-6.48C.64,293,.31,291.94,0,290.88v-5.76a14.38,14.38,0,0,0,.79-2.49c1.23-9.55,5.3-17.85,11.09-25.41.39-.5.74-1,1.06-1.47a2.38,2.38,0,0,0-.12-.58C7,244.63,5.36,233.36,6.72,221.52a8.65,8.65,0,0,0-.11-2.38,52.26,52.26,0,0,1,.82-20c2.15-9.64,6.36-18.39,11.5-26.75a11.83,11.83,0,0,0,1.56-3.95,173.34,173.34,0,0,1,9.06-32C41,107.08,59,82.35,82.44,61.47c24.26-21.65,52.08-37.17,82.81-47.55A264.75,264.75,0,0,1,237.83.41,22.37,22.37,0,0,0,240.37,0h20.15a16.4,16.4,0,0,0,2.07.39,271.21,271.21,0,0,1,40.66,4.87A250.34,250.34,0,0,1,383.92,36c27,16.16,49.87,36.77,67.72,62.79a180,180,0,0,1,29.45,72.26c.84,4.9,1,9.72-1,14.37a3,3,0,0,0,.35,2.7,103.14,103.14,0,0,1,6.33,17.06,152.92,152.92,0,0,1,3.34,17.65,87.88,87.88,0,0,1,.33,20.56c-.32,3.62-1.41,7.17-2.14,10.69,2.32,3.43,4.88,6.82,7,10.46,3.41,5.85,5.84,12.08,6.16,19a9.1,9.1,0,0,0,.39,1.6v5.76c-.16.93-.39,1.86-.47,2.8a19,19,0,0,1-1.93,6.93h-7.22a51.52,51.52,0,0,1-2.51,25.11,69.57,69.57,0,0,1-12.95,21.45,2.36,2.36,0,0,0,.11.49c.39.6.81,1.19,1.2,1.79a21.27,21.27,0,0,1,3.41,15.33A172.11,172.11,0,0,1,468,409.88c-13.09,28.81-32.35,52.83-56.92,72.57-41.87,33.64-90.14,50.61-143.41,54.22C266.24,536.76,264.82,537,263.39,537.12ZM250.67,9.92a308.71,308.71,0,0,0-35.83,2.67,257.47,257.47,0,0,0-30,5.92,249.75,249.75,0,0,0-37.94,13.28,4.85,4.85,0,0,0-3.05,3.36c-1.06,3.77-2.37,7.47-3.36,11.26-3.77,14.35-5.4,28.87-3.27,43.68,2.44,17,9.83,31.46,21.47,43.87,9.63,10.26,21.1,18,33.51,24.52a218.89,218.89,0,0,0,38.76,15.25,373.89,373.89,0,0,0,56.94,11.94c8.86,1.18,17.75,2.1,26.65,3q10.73,1.07,21.48,1.77c6.93.45,13.87.75,20.81,1q11.74.36,23.49.45c4.07,0,8.14-.21,12.21-.3,8-.18,16-.28,24-.53,6.95-.22,13.89-.55,20.82-.94,7.89-.45,15.77-1.08,23.66-1.49a11.19,11.19,0,0,0,10.58-12.73c-.63-4.26-1.28-8.54-2.25-12.73-6.61-28.81-20.18-54-39.52-76.26A211.71,211.71,0,0,0,370.1,39.65c-29.49-15.92-61-25.07-94.32-28.32C267.45,10.52,259,10.37,250.67,9.92ZM109.13,370.22c0,1.66,0,2.84,0,4s.16,2.07.25,3.11c.37,4.29.53,8.62,1.16,12.88a134.41,134.41,0,0,0,14.56,44.93,108.34,108.34,0,0,0,25.51,31.48,116.91,116.91,0,0,0,38.15,21.16A150,150,0,0,0,225,495.35c7.72.63,15.45,1,23.19,1.33a67.65,67.65,0,0,0,7.65-.36c5.17-.35,10.38-.51,15.52-1.15a146.26,146.26,0,0,0,33.72-8,109.84,109.84,0,0,0,34.49-20.38A112,112,0,0,0,366,432.58a141,141,0,0,0,9.86-26,157.77,157.77,0,0,0,5-30.22,16.2,16.2,0,0,0-.23-2.44C289.8,395.1,199.5,393.65,109.13,370.22Zm-92.74-109c-1.54,2.47-3,4.65-4.3,6.92a39.52,39.52,0,0,0-5.21,23.51c.2,2.19.46,2.44,2.61,2.52,7.35.26,14.7.42,22,.82s14.67.89,22,1.58c10.57,1,21.14,2.06,31.68,3.36,14.57,1.8,29.13,3.81,43.67,5.81,10.6,1.47,21.18,3.05,31.76,4.62,13,1.95,26,3.85,39,5.93,16.08,2.58,32.13,5.33,48.2,7.95a16.16,16.16,0,0,0,4.95.19c10.09-1.57,20.16-3.29,30.24-4.94q14.18-2.33,28.37-4.58c8.91-1.39,17.83-2.71,26.75-4,8.21-1.23,16.42-2.46,24.64-3.63,7.58-1.07,15.18-2.08,22.77-3.09q9.86-1.31,19.72-2.53c7.45-.92,14.89-1.86,22.35-2.67,7.07-.77,14.14-1.44,21.22-2.08s14.32-1.35,21.49-1.72c7.58-.4,15.18-.43,22.77-.63.68,0,1.37-.12,2-.17,2.91-10.21-2.28-26-10-33.72-.07,0-.16.06-.2.11a8.47,8.47,0,0,0-.58.76,43.5,43.5,0,0,1-18.11,16,279,279,0,0,1-34.51,14.26,223.92,223.92,0,0,1-56,11.14,199.15,199.15,0,0,1-22.53.27,225.29,225.29,0,0,1-31.62-3.64,246.73,246.73,0,0,1-59.41-19.67,52.12,52.12,0,0,1-12.9-8.64c-.52-.47-1.08-.9-1.53-1.27-2.5,1.45-4.79,2.93-7.2,4.14a266.32,266.32,0,0,1-34.24,14.3A223.21,223.21,0,0,1,146.76,300a204.78,204.78,0,0,1-32.09-.7,234.32,234.32,0,0,1-26.23-4.18c-17.87-3.9-34.91-10.22-51.59-17.6a49.22,49.22,0,0,1-18-13.28Zm128.13-50.5c-.59-.07-1.6-.23-2.62-.32-4.37-.39-8.75-.71-13.12-1.14-5.41-.54-10.8-1.14-16.19-1.73-6.35-.69-12.71-1.34-19-2.12-6.82-.83-13.62-1.76-20.42-2.71-7.34-1-14.68-2.12-22-3.2C47.55,199,44,198.28,40.45,198c-8.09-.72-14.18-4.48-18.28-11.48-.35-.6-.71-1.19-1.31-2.19-1,2.15-1.88,3.92-2.63,5.73-3.8,9.08-5.72,18.46-4.15,28.31,1,6.38,3.64,11.91,9,15.85,4.5,3.31,8.82,3.28,13.18-.21,2.11-1.7,4-3.72,6-5.53a70.72,70.72,0,0,1,6.56-5.59A16.85,16.85,0,0,1,62,220.06a26.66,26.66,0,0,1,12.88,6.53c3.11,2.75,5.93,5.82,8.94,8.69s5.77,5.79,9,8.29c5.36,4.2,11.52,5.21,18.14,3.66a39.58,39.58,0,0,0,17.33-9.31c6.3-5.57,11.09-12.35,15.64-19.33C145.44,216.21,146.87,214,144.52,210.74ZM474.9,193.57c-.73.49-1.07.69-1.37.93a22.47,22.47,0,0,1-10.88,4.66c-1.42.22-2.86.26-4.28.46-7.19,1-14.37,2.1-21.56,3.1-6.71.93-13.43,1.83-20.16,2.66-6.26.77-12.53,1.46-18.79,2.14-5.24.56-10.48,1.08-15.72,1.59-6.36.6-12.72,1.2-19.08,1.74-4.85.4-9.71.69-14.57,1.06a6.62,6.62,0,0,0-1.36.38c0,1.43-.05,2.78,0,4.12.07,1.59.22,3.18.39,4.77.61,5.63,1.13,11.28,1.91,16.89a25.88,25.88,0,0,0,3.83,10.5,13.84,13.84,0,0,0,12,6.72,20.79,20.79,0,0,0,11.12-3.22,49.29,49.29,0,0,0,10.46-8.74c4.12-4.36,8.07-8.87,12.21-13.2a53.1,53.1,0,0,1,15.4-11.66c9.42-4.5,18.4-3.83,26.84,2.43a50.77,50.77,0,0,1,4.78,4c2.55,2.42,5,5,7.5,7.43,1.89,1.83,3.8,3.66,5.83,5.34a22.38,22.38,0,0,0,9.79,4.83c5.41,1.13,9.8-1,11.79-6.12a21.69,21.69,0,0,0,1.46-6.74c.46-9.7-1.56-19-4.61-28.2C477,198.87,476,196.37,474.9,193.57Zm-175,21.09c-1.3,0-2.09,0-2.87,0-5.12.13-10.23.33-15.34.39-25,.28-50,.45-75-.76q-19-.91-38.07-1.92c-3.27-.17-6.53-.43-9.81-.55-2.46-.09-4.35,2.86-3.37,5.15a21.11,21.11,0,0,0,5.88,7.78,74.27,74.27,0,0,1,10.64,11.35,60.54,60.54,0,0,0,4.32,5.14A40.41,40.41,0,0,0,191,251.56a21.83,21.83,0,0,0,18.33-.73c2.29-1.14,4.48-2.47,6.65-3.82s4-2.87,6.19-4.1a78.49,78.49,0,0,1,8.91-4.64A18.14,18.14,0,0,1,242.57,237a67,67,0,0,1,8.43,2.64c3.27,1.28,6.38,2.94,9.63,4.28a20.66,20.66,0,0,0,20.71-2.22,38.35,38.35,0,0,0,4.13-3.28c5.34-4.9,9-10.94,11.9-17.52C298.2,219,298.9,217.05,299.85,214.66Z"/></svg>