<svg id="Capa_1" data-name="Capa 1" xmlns="http://www.w3.org/2000/svg" viewBox="0 0 639.4 768.7"><defs><style>.cls-1,.cls-7,.cls-8{fill:#010203;}.cls-2{fill:#361f07;}.cls-11,.cls-2,.cls-3,.cls-4,.cls-5{stroke:#000;stroke-miterlimit:10;}.cls-2,.cls-3{stroke-width:9.7px;}.cls-3{fill:#ff9a10;}.cls-4{fill:#ffcf13;stroke-width:5.82px;}.cls-5{fill:#c80001;stroke-width:6.79px;}.cls-6{fill:#6cba20;}.cls-7{opacity:0.12;}.cls-8{opacity:0.1;}.cls-10,.cls-9{fill:#fff;}.cls-9{opacity:0.41;}.cls-11{stroke-width:18.44px;}</style></defs><path class="cls-1" d="M569.21,373.53a41,41,0,0,0,3.43-16.4V346.9a22.84,22.84,0,0,0-1.28-7.42c-.1-1-.22-2.08-.37-3.1a105.17,105.17,0,0,0-11.56-35.48,17.88,17.88,0,0,0,1.94-11.15c-14.9-100.53-115.69-178.27-237.81-178.27-119.86,0-219.16,74.89-236.89,172.71-5,7.64-9.77,15.57-12.92,24.62s-4.46,19.37-2.58,28.77a22.73,22.73,0,0,0-.87,6.12v4.43A50.33,50.33,0,0,0,78,374.88c-20.89,23.65-12.88,44.28-12.88,44.28,3.42-.16,7.28-.2,11.53-.13a47.21,47.21,0,0,0-1.42,11.4c0,14.1,6.39,27.55,18,39.87A18,18,0,0,0,86,487.51C100.87,588,201.66,665.78,323.78,665.78c121.47,0,221.84-76.92,237.57-176.67A18,18,0,0,0,554,471.62C566.35,459,573.2,445,573.2,430.43a47.21,47.21,0,0,0-1.42-11.4c4.24-.07,8.11,0,11.53.13C583.31,419.16,591.63,397.74,569.21,373.53Z" transform="translate(-3.99 -17.89)"/><ellipse id="brown" class="cls-2" cx="320.22" cy="410.5" rx="236.87" ry="101.58"/><path id="Tapa_down" class="cls-3" d="M532.84,464.37a17.21,17.21,0,0,1,17,19.85c-15,94.89-110.45,168.07-226,168.07-116.18,0-212.06-74-226.24-169.59A17.22,17.22,0,0,1,114.67,463Q323.71,543.69,532.84,464.37Z" transform="translate(-3.99 -17.89)"/><path id="cheese" class="cls-4" d="M535.68,357c47.33,29,35,60.64,35,60.64-57.4-2.68-246,30.14-246,30.14h-1S135.12,415,77.72,417.67c0,0-12.31-31.63,35-60.64Z" transform="translate(-3.99 -17.89)"/><path class="cls-5" d="M82.66,345.88v4.23a48,48,0,0,0,27.46,43.36q101.15,47.83,202.28-2.81a39.21,39.21,0,0,0,21.7-35v-9.74" transform="translate(-3.99 -17.89)"/><ellipse class="cls-5" cx="204.39" cy="327.99" rx="125.72" ry="50.72"/><path class="cls-5" d="M309.11,348.93v4.22a48,48,0,0,0,27.46,43.36q101.15,47.83,202.28-2.8a39.22,39.22,0,0,0,21.7-35v-9.73" transform="translate(-3.99 -17.89)"/><ellipse class="cls-5" cx="430.84" cy="331.03" rx="125.72" ry="50.72"/><g id="Verde"><path class="cls-6" d="M222.16,331.54c5.53,17.33,9.33,13,19.41,26.66s25.61,22.54,39.81,17.36c10.44-3.81,19.22-14.67,30.08-15.07,9.42-.36,17.89,7.34,27.24,8.91,14.05,2.35,27.59-9.95,34.61-25.52s8.88-33.89,10.62-51.67l24.86,21.32c12.69,14.33,3.61,44.93,16.11,59.52,7.27,8.49,19,7.34,27.81,1.56s15.62-15.22,23.37-23,17.45-14.12,27.19-11.93c10,2.24,17.26,12.64,25.58,19.93s21.17,10.8,27.52.84c3.72-5.84,3.64-14.16,2.62-21.55-3.88-27.94-19.31-52.9-39.83-64.4L101.23,284.73c-5.8,8.7-11.67,17.55-15.29,28s-4.72,22.79-.85,33.05S98.7,363,107.28,359.56c7.43-3,12.36-12.56,19.86-15.27,7.26-2.62,15,1.91,21,7.64s11.39,12.87,18.3,16.71c13.17,7.32,28.94.73,40.13-10.71s19.06-27.07,28.1-41.22,20.18-27.54,34.22-31.49Z" transform="translate(-3.99 -17.89)"/><path d="M218.66,332.51c2,6.14,4.44,12.06,9.2,16.57,1.88,1.78,3.89,3.41,5.7,5.26,2.71,2.75,4.88,5.89,7.32,8.86,10.57,12.85,27.85,22.14,44.23,14.73,7.42-3.36,13.32-9.52,20.9-12.53,8.33-3.32,15.61,1.41,23.11,4.67,7.72,3.35,15.49,4.4,23.42,1.08,7.78-3.25,14-9.35,18.71-16.21,12.46-18,14.25-41.57,16.32-62.73l-6.22,2.58L395.57,307c4.69,4,10.59,7.72,13.4,13.39,2.44,4.92,3.19,10.69,3.73,16.1.61,6.11.89,12.24,1.71,18.33,1.57,11.61,6.31,25,19.36,27.53,14.89,2.92,26.6-8.17,35.78-18.29,8.29-9.14,21.1-25.83,35.48-20,6.15,2.49,10.85,7.95,15.4,12.55,4.71,4.77,9.51,9.26,15.8,11.8,5.48,2.21,11.85,2.73,17.18-.18,6.36-3.47,9-10.72,9.65-17.55.71-7.33-.64-15-2.32-22.1a105.31,105.31,0,0,0-7.11-20.27c-5.64-12-13.81-23.13-24.32-31.32-3.17-2.47-7-6.16-11.27-6.06l-5.28.13-22.19.54-34.77.85-44.22,1.08-50.7,1.24-53.52,1.31L254,277.36l-50.19,1.23-43.38,1.06-33.71.82-20.54.5c-1.46,0-2.93,0-4.39.11a9.1,9.1,0,0,0-1,.08c-2.21.38-3.13,2.43-4.26,4.14s-2.29,3.47-3.4,5.22c-2.09,3.3-4.09,6.66-5.88,10.14-7,13.61-11.15,30.37-5.89,45.31,4.22,12,17.51,23.4,30.27,15.46,5.37-3.34,8.86-8.87,14.09-12.31,6.1-4,12.73-.75,17.76,3.5,5.73,4.83,10.21,11,16.07,15.65,5.55,4.44,12,7.17,19.2,7.08,14.67-.17,27.16-10.16,35.92-21.09,9.81-12.26,16.8-26.36,25.54-39.34,7.29-10.81,16.64-22.38,29.66-26.19l-3.54-6.09-40.91,40.59L219.59,329c-3.33,3.3,1.82,8.45,5.15,5.15l40.91-40.59,5.79-5.74c2.56-2.53,0-7.11-3.54-6.08-19.66,5.75-31.67,25.15-41.62,41.64s-21.07,38.49-41.37,43.85a23.16,23.16,0,0,1-13-.11c-4.68-1.48-8.44-4.72-11.87-8.12-7.11-7-13.87-16.13-24.16-18.55a17.71,17.71,0,0,0-13.9,2.42c-3.79,2.49-6.77,5.91-10,9-2.59,2.45-5.59,5-9.35,5s-7.32-2.45-9.85-5.23c-7.56-8.3-7.51-21.5-5.11-31.79,2.87-12.27,9.81-22.87,16.7-33.22l-3.14,1.8,11.21-.27,30.37-.74,45.06-1.1,54.77-1.34,60-1.47L363.41,282l56.68-1.39,47.7-1.16,34.34-.84c5.41-.13,10.93,0,16.33-.4.23,0,.47,0,.7,0l-1.84-.49c22.29,12.64,35.87,39,38.35,64,.6,6,.85,13.82-3.67,18.55-3.59,3.77-9.13,3.18-13.54,1.31-5.59-2.36-9.75-6.87-13.93-11.1-4.57-4.64-9.36-9.64-15.35-12.43-14.18-6.59-27.73,2.77-37.36,12.82C466.69,356.14,462,362,456.55,367c-4.56,4.17-10,8-16.37,8.5A14.5,14.5,0,0,1,426.4,369c-2.88-4.37-4-9.63-4.77-14.74-1.6-11.13-.82-22.91-4.7-33.62-1.31-3.63-3.14-7.47-6-10.11-2.07-1.89-4.27-3.66-6.4-5.49l-16.84-14.44-1.15-1a3.69,3.69,0,0,0-6.21,2.57c-1.75,17.87-3.26,37.1-11.8,53.26-3.6,6.79-8.62,13.23-15.28,17.23-6.29,3.78-12.78,4.12-19.55,1.43-7.48-3-14.76-8-23.19-7.21-7.84.74-14.18,5.44-20.51,9.72-6.11,4.13-12.41,7.6-20,6.61s-14.42-5.45-19.77-10.7c-3.24-3.18-5.76-6.87-8.68-10.33a65.78,65.78,0,0,0-6.73-6.73,27.65,27.65,0,0,1-4.5-4.68,40.14,40.14,0,0,1-4.56-10.23C224.24,326.14,217.21,328,218.66,332.51Z" transform="translate(-3.99 -17.89)"/></g><path id="Tapa_up" class="cls-3" d="M114.55,312.89a17.22,17.22,0,0,1-17-19.85C112.55,198.14,208,125,323.59,125c116.18,0,212.06,74,226.24,169.6a17.22,17.22,0,0,1-17.11,19.71A1325.58,1325.58,0,0,1,114.55,312.89Z" transform="translate(-3.99 -17.89)"/><path class="cls-7" d="M541.87,307.91s-405.7,44.33-321.28-163.29c0,0-122.69,66.69-118.78,155.7a7,7,0,0,0,5.18,6.52C139.41,315.49,332.77,360.74,541.87,307.91Z" transform="translate(-3.99 -17.89)"/><path class="cls-8" d="M182,487.78S112.42,470,113.54,465.51c0,0-12.75,5.72-13.17,13.07s26.9,162.58,215.45,172.15c0,0,209.63-2.57,230-167.73,0,0,1.14-12.64-11.49-14.69,0,0-56,20.44-68.09,21.28l-12.06.84s3.18,129.15-138.37,126.21S182,487.78,182,487.78Z" transform="translate(-3.99 -17.89)"/><path class="cls-7" d="M89.42,381.29s17.69,27,107.72,43.73c0,0-94-12.2-117.29-9.84C79.85,415.18,74.45,395.79,89.42,381.29Z" transform="translate(-3.99 -17.89)"/><ellipse class="cls-9" cx="443.31" cy="197.42" rx="22.57" ry="38.67" transform="translate(4.86 395.74) rotate(-50.46)"/><circle class="cls-9" cx="489.53" cy="220.98" r="12.22"/><path class="cls-10" d="M365.18,346.84c.37-.43.68-.19.34.28-2.55,3.55-6.54,9.31-11.62,12.95a24.67,24.67,0,0,1-7.32,3.67,17.59,17.59,0,0,1-4.12.72c-2,.09-3.56-1-3.36-1.8s1.63-1.24,3.27-1.32a18.08,18.08,0,0,0,3.53-.34,22.7,22.7,0,0,0,6.85-2.69C357.74,355.43,362.29,350.14,365.18,346.84Z" transform="translate(-3.99 -17.89)"/><path class="cls-10" d="M467.12,352.7c.66-.53.91-.23.29.34l-8.76,8-5,4.57c-1.7,1.53-3.33,3.1-5.1,4.52a17.62,17.62,0,0,1-5.78,3.26,13,13,0,0,1-5.78.41,14,14,0,0,1-5.89-2.26,7,7,0,0,1-2.49-3c-.38-.94-.32-1.66,0-1.86.8-.42,2.29,1,4.24,2.27a12.08,12.08,0,0,0,4.58,2,10.5,10.5,0,0,0,4.63,0,15.54,15.54,0,0,0,5.19-2.53c1.73-1.22,3.49-2.7,5.28-4.11l5.32-4.23Z" transform="translate(-3.99 -17.89)"/><path class="cls-10" d="M552.47,339.17c-.08-.35.28-.49.42-.14a17,17,0,0,1,1.27,5.1,19.48,19.48,0,0,1-.4,6.13,18.25,18.25,0,0,1-3.37,7.23,2.37,2.37,0,0,1-1.45.87,1.28,1.28,0,0,1-1.22-.35,1.56,1.56,0,0,1-.32-1.23,2.9,2.9,0,0,1,.62-1.32,17.67,17.67,0,0,0,3.72-5.81,18,18,0,0,0,1.2-5.49A16.54,16.54,0,0,0,552.47,339.17Z" transform="translate(-3.99 -17.89)"/><path class="cls-10" d="M206.13,347.11c.43-.59.76-.39.37.24a33.15,33.15,0,0,1-6.62,8,37.69,37.69,0,0,1-10.15,6.38,36.13,36.13,0,0,1-10,2.66,31.78,31.78,0,0,1-3.44.25,12.67,12.67,0,0,1-1.72,0,12.45,12.45,0,0,1-1.73-.24,7.55,7.55,0,0,1-1.35-.55c-.75-.4-1.15-.85-1.07-1.28s.63-.73,1.41-.9a6.66,6.66,0,0,1,1.33-.13,10.49,10.49,0,0,1,1.59,0c.22,0,.76.1,1.57.1a30.93,30.93,0,0,0,3.17,0,34.5,34.5,0,0,0,9.44-1.82,36.14,36.14,0,0,0,10.13-5.36A32.12,32.12,0,0,0,206.13,347.11Z" transform="translate(-3.99 -17.89)"/><path class="cls-10" d="M128.69,338.63c.65-.08.7.3.08.44a31.92,31.92,0,0,0-8.33,3.14A30.62,30.62,0,0,0,116.2,345c-1.35,1-2.57,2.22-3.8,3.38a28.76,28.76,0,0,1-3.85,3.14,13.28,13.28,0,0,1-2,1.12,11.06,11.06,0,0,1-2.09.65,9.47,9.47,0,0,1-5.09-.34,4.32,4.32,0,0,1-2.42-2.23,1.92,1.92,0,0,1-.15-1.06.72.72,0,0,1,.36-.56c.41-.21.9,0,1.46.18l1.9.77a7,7,0,0,0,3.49.45,7.88,7.88,0,0,0,1.56-.35,12.33,12.33,0,0,0,1.75-.77,27.17,27.17,0,0,0,3.75-2.6c1.3-1,2.7-2.16,4.21-3.14a32.75,32.75,0,0,1,13.46-5Z" transform="translate(-3.99 -17.89)"/><path class="cls-10" d="M253.06,361.91c-.25-.32,0-.57.33-.3a23.12,23.12,0,0,0,4.45,3.36,24.65,24.65,0,0,0,13.52,3.32c1.2,0,2.24.6,2.33,1.48a1.28,1.28,0,0,1-.62,1.14,2.79,2.79,0,0,1-1.74.5,24.43,24.43,0,0,1-8.42-2,26.34,26.34,0,0,1-5.76-3.41A23.44,23.44,0,0,1,253.06,361.91Z" transform="translate(-3.99 -17.89)"/><path class="cls-11" d="M57.81,133.66l-.45,6.63q-.28,3.65,1.1,5.16a4.78,4.78,0,0,0,2,1.26,19.44,19.44,0,0,0,3.72.74l25.43,3.12a32.93,32.93,0,0,0,4.5.37,11.77,11.77,0,0,0,2.87-.64,8.88,8.88,0,0,1,4.07-.61,5.09,5.09,0,0,1,2.94,1.75q3.18,3.52-1.83,8.06L89.55,170.89A4.56,4.56,0,0,1,87,172.18a21.31,21.31,0,0,1-4.9-.64,129.55,129.55,0,0,0-14.23-2,45.47,45.47,0,0,0-5-.25A3,3,0,0,0,61,170q-1.92,1.74,1.36,5.36,2.67,3,4.95,2.94L69,178a4.58,4.58,0,0,1,4.41,1.26q2,2.19-.08,5.78t-9,9.85c-4.09,3.7-7.3,6.17-9.62,7.38a5.13,5.13,0,0,1-3,.55,4,4,0,0,1-2.54-1.3q-1.59-1.76-.74-4.82a5.25,5.25,0,0,0,.09-2.47,12.82,12.82,0,0,0-1.47-3,98,98,0,0,0-9.8-12.15q-8.42-9.3-12.63-12.55a8.44,8.44,0,0,0-2.8-1.63A6.6,6.6,0,0,0,19,165a4.4,4.4,0,0,1-4.54-1.27,4.25,4.25,0,0,1-1.15-3.6,11.26,11.26,0,0,1,2.4-4.83,60.5,60.5,0,0,1,7.89-8.36q5.2-4.73,8.63-6a4.5,4.5,0,0,1,5.27,1.28,3.89,3.89,0,0,1,1,1.85,12.43,12.43,0,0,1-.26,3.35,6.34,6.34,0,0,0,1,3.11A19,19,0,0,0,42,154.37c1.68,1.86,2.95,2.41,3.79,1.65a2.92,2.92,0,0,0,.87-2,56.29,56.29,0,0,0-.13-5.92c-.21-3.56-.65-5.71-1.33-6.47a6.1,6.1,0,0,0-2.26-1.22,4.57,4.57,0,0,1-1.81-1.13c-1.48-1.64-1.65-3.6-.49-5.88s3.88-5.35,8.15-9.22A42.86,42.86,0,0,1,56.91,118q3.77-1.91,6.2.79a4.56,4.56,0,0,1,1.16,2.54,3.8,3.8,0,0,1-.49,2.59,19,19,0,0,1-3,3.19,9.79,9.79,0,0,0-2.26,2.8A11.87,11.87,0,0,0,57.81,133.66Z" transform="translate(-3.99 -17.89)"/><path class="cls-11" d="M89.7,94.08a49.82,49.82,0,0,1,8.54-4.54q5.76-2.34,7.92.95a2.8,2.8,0,0,1,.56,2,12.62,12.62,0,0,1-1.51,3.28c-.77,1.33-.7,3.08.22,5.27s3.23,6.09,6.93,11.73q9.4,14.3,12.35,17.23a4.41,4.41,0,0,0,1.9,1.14,8.57,8.57,0,0,0,2.72,0c2.13-.34,3.67.21,4.61,1.63,1.31,2,.69,4.37-1.86,7.11a62.24,62.24,0,0,1-11.3,9.15q-12.19,8-15.25,3.38-1.11-1.68.33-4.72a5.21,5.21,0,0,0,.15-4.49q-2.08-4.74-11.2-18.58-6.28-9.57-9-11.63a6.57,6.57,0,0,0-4.33-1.12,10.74,10.74,0,0,1-3.16-.33,3.25,3.25,0,0,1-1.66-1.38,3.47,3.47,0,0,1-.13-3.58,21.21,21.21,0,0,1,4.36-5.31A58.12,58.12,0,0,1,89.7,94.08Z" transform="translate(-3.99 -17.89)"/><path class="cls-11" d="M163.83,69.74l-2.46,6.18q-1.37,3.38-.51,5.25A4.7,4.7,0,0,0,162.33,83a19.74,19.74,0,0,0,3.32,1.84l23.27,10.72a31.8,31.8,0,0,0,4.18,1.72,11.36,11.36,0,0,0,2.92.27,8.77,8.77,0,0,1,4.06.66,5.06,5.06,0,0,1,2.27,2.56q2,4.32-4.19,7.12l-15.45,7a4.51,4.51,0,0,1-2.82.45,21.64,21.64,0,0,1-4.47-2.1,127.58,127.58,0,0,0-13-6.22,43.89,43.89,0,0,0-4.65-1.74,3.05,3.05,0,0,0-2,0c-1.57.72-1.69,2.56-.34,5.52q1.65,3.63,3.82,4.31l1.72.3a4.58,4.58,0,0,1,3.81,2.55c.81,1.8.2,3.62-1.84,5.48s-5.89,4.08-11.54,6.65q-7.54,3.42-11.41,4.1a5.13,5.13,0,0,1-3.07-.4,4,4,0,0,1-2-2q-1-2.16.76-4.82a5,5,0,0,0,.83-2.33,12.38,12.38,0,0,0-.46-3.35,98.06,98.06,0,0,0-5.63-14.56q-5.19-11.42-8.21-15.8a8.36,8.36,0,0,0-2.18-2.4,6.36,6.36,0,0,0-2.75-.76,4.44,4.44,0,0,1-3.94-2.6,4.26,4.26,0,0,1,0-3.78,11.46,11.46,0,0,1,3.76-3.87,60.37,60.37,0,0,1,10.06-5.56q6.4-2.91,10.06-3.09a4.49,4.49,0,0,1,4.62,2.82,3.9,3.9,0,0,1,.44,2.09,13,13,0,0,1-1.27,3.1,6.42,6.42,0,0,0,0,3.28,18.35,18.35,0,0,0,1.37,4.49c1,2.29,2.07,3.19,3.11,2.72A2.93,2.93,0,0,0,147,85.71,55.26,55.26,0,0,0,148.64,80q1.34-5.19.7-6.57a5.86,5.86,0,0,0-1.77-1.85A4.5,4.5,0,0,1,146.18,70q-1.37-3,1.33-5.74t10.57-6.3a42.43,42.43,0,0,1,9.66-3.41q4.17-.66,5.67,2.64a4.55,4.55,0,0,1,.33,2.78,3.77,3.77,0,0,1-1.26,2.32,18.78,18.78,0,0,1-3.8,2.12,9.83,9.83,0,0,0-3,2A11.9,11.9,0,0,0,163.83,69.74Z" transform="translate(-3.99 -17.89)"/><path class="cls-11" d="M198.13,43.84a9.62,9.62,0,0,1,8.52,1.38,11.92,11.92,0,0,1,4.77,6.72,24.66,24.66,0,0,1,.43,11.28,36,36,0,0,1-4.5,12c-1.27,2.15-2.66,3.44-4.18,3.89a5,5,0,0,1-3,0,2.44,2.44,0,0,1-1.78-1.56,2.3,2.3,0,0,1,.43-1.71A28.54,28.54,0,0,0,201.27,70a7.77,7.77,0,0,0,0-4.12,3.19,3.19,0,0,0-2.18-2,15.86,15.86,0,0,1-5-3,9.52,9.52,0,0,1-2.51-4.35,10.09,10.09,0,0,1,.63-7.81A9.62,9.62,0,0,1,198.13,43.84Z" transform="translate(-3.99 -17.89)"/><path class="cls-11" d="M245.66,32.82a43.61,43.61,0,0,1,12.31.26,5.55,5.55,0,0,0,1.45,0,13.74,13.74,0,0,0,2.52-1.24,4.24,4.24,0,0,1,1.46-.52c2-.33,4.32.88,7,3.64s4.31,5.54,4.79,8.37a6.23,6.23,0,0,1-.79,4.42,4.65,4.65,0,0,1-3.31,2.3,5.38,5.38,0,0,1-3-.22,51.75,51.75,0,0,1-5.56-3.39q-6.13-4-11.25-3.2a6.15,6.15,0,0,0-3.75,1.86,3.84,3.84,0,0,0-1,3.38q.64,3.84,7.73,4.65a103.55,103.55,0,0,1,12.36,2q12.18,3.6,14,14.24A18.86,18.86,0,0,1,275.55,86q-6.84,7.41-19.52,9.53a57.57,57.57,0,0,1-12.15.65q-6.49-.3-9.58-1.64-2.36-1.06-4.85-5.53a27.46,27.46,0,0,1-3.25-9,5.27,5.27,0,0,1,.33-3.42,3.44,3.44,0,0,1,2.55-1.88A4.45,4.45,0,0,1,232.59,76a67,67,0,0,1,5.42,5.5,12.08,12.08,0,0,0,5.87,3.24,17.79,17.79,0,0,0,7.63.4,10.31,10.31,0,0,0,5.1-2.1,3.63,3.63,0,0,0,1.51-3.45,3.9,3.9,0,0,0-2.1-2.79,16.56,16.56,0,0,0-5.57-1.52,69.57,69.57,0,0,1-10.24-2,29.36,29.36,0,0,1-6.88-3.14q-8-5-9.33-12.87a17.38,17.38,0,0,1,.54-7.88,19.24,19.24,0,0,1,4.06-7.24A27.58,27.58,0,0,1,245.66,32.82Z" transform="translate(-3.99 -17.89)"/><path class="cls-11" d="M331,27.27q13.94,1,13.5,6.8a4.23,4.23,0,0,1-.91,2.5,9.24,9.24,0,0,1-2.88,2,4.71,4.71,0,0,0-2.43,2.65,33.51,33.51,0,0,0-1,7c-.15,2.08.14,3.39.88,3.92a4.11,4.11,0,0,0,2,.69q1.35.2,6.4.57c3.07.23,5,.21,5.75-.06s1.21-1.06,1.3-2.37a42.3,42.3,0,0,0,.09-8.26,4.56,4.56,0,0,0-1.86-3.32,9.53,9.53,0,0,1-2.45-2.1,3.18,3.18,0,0,1-.47-2.12A4.76,4.76,0,0,1,350.5,32a7,7,0,0,1,3.77-1.76A51.29,51.29,0,0,1,366,30q8.22.61,12,2.4t3.56,5a4.33,4.33,0,0,1-3.07,3.82,5.9,5.9,0,0,0-2.39,1.36,6.79,6.79,0,0,0-1.06,2.69c-.17.73-.57,4-1.19,9.88s-1.06,10.5-1.32,14q-.68,9.08-.2,11.57a4.21,4.21,0,0,0,.67,1.85,18.44,18.44,0,0,0,2.68,2,3,3,0,0,1,1.48,3c-.17,2.27-1.64,3.81-4.41,4.64s-7.18,1-13.22.55q-7.95-.6-11.63-2.45-3.33-1.68-3.1-4.67a4.38,4.38,0,0,1,2.93-3.78,4.84,4.84,0,0,0,1.87-1.3,9.14,9.14,0,0,0,1.12-2.56,45,45,0,0,0,1.49-9.14c.14-1.88-.05-3.06-.56-3.55s-1.94-.82-4.26-1q-8-.6-10.25.13c-.62.19-1,.86-1.27,2a43.62,43.62,0,0,0-.67,5.25c-.26,3.39,0,5.87.88,7.43a8.28,8.28,0,0,0,2.18,2,3.73,3.73,0,0,1,1.61,3.67c-.15,2.08-1.72,3.56-4.69,4.45s-7.13,1.12-12.49.72a39.33,39.33,0,0,1-11.85-2.42,7.47,7.47,0,0,1-3-2.13,3.93,3.93,0,0,1-.94-2.79,3.33,3.33,0,0,1,.89-2.22,12,12,0,0,1,3.28-1.82A3.9,3.9,0,0,0,313,77a10.46,10.46,0,0,0,1-3.24,113.48,113.48,0,0,0,1.69-13.62c.08-1,.16-2.28.24-3.71q.61-10.73.74-12.25c.22-2.55.13-4.26-.27-5.11s-1.54-1.85-3.43-3a3,3,0,0,1-1.76-3q.35-4.52,9.22-5.59A52.76,52.76,0,0,1,331,27.27Z" transform="translate(-3.99 -17.89)"/><path class="cls-11" d="M427.53,42.42a32.17,32.17,0,0,1,17.59,11.76A34,34,0,0,1,451.06,68a32.12,32.12,0,0,1-.46,14.75,28.6,28.6,0,0,1-11.82,16.32,32.76,32.76,0,0,1-17.61,5.63,38.22,38.22,0,0,1-11.85-1.37,35.22,35.22,0,0,1-13.41-7.1,29.86,29.86,0,0,1-9.72-14.94,31.34,31.34,0,0,1,0-17.44,30.72,30.72,0,0,1,10.89-16.49A31,31,0,0,1,413.88,41,37.5,37.5,0,0,1,427.53,42.42ZM420,53.65a6.78,6.78,0,0,0-6.64,1.63,10.33,10.33,0,0,0-3.24,5.28,40.12,40.12,0,0,0-1.17,11.83,51.93,51.93,0,0,0,1.82,12.76,11.06,11.06,0,0,0,2.35,4.29,7.59,7.59,0,0,0,3.64,2.36,6.71,6.71,0,0,0,6-1,10.3,10.3,0,0,0,3.81-5.9A44.07,44.07,0,0,0,428,73.19a41,41,0,0,0-1.47-11.52,14.62,14.62,0,0,0-2.64-5.21A8.51,8.51,0,0,0,420,53.65Z" transform="translate(-3.99 -17.89)"/><path class="cls-11" d="M519.76,107.08l-5,9.72q-4.51,8.82-7.71,11.8-6.79,6.28-18.17,4.83a42.66,42.66,0,0,1-14.26-4.59q-12.78-6.57-17.35-16.6a17.67,17.67,0,0,1-1.63-9.59q.58-4.68,4.41-12.13,1.49-2.91,5.1-9.46,2.54-4.65,3.31-6.16a16.19,16.19,0,0,0,1.85-4.84,6,6,0,0,0-.95-3.5c-1.16-2-1.39-3.77-.67-5.18a4.09,4.09,0,0,1,2.75-2.06,8.28,8.28,0,0,1,4.36.17,59.71,59.71,0,0,1,10.81,4.44A55.87,55.87,0,0,1,497,70.52q3.78,3.15,2,6.53a3.64,3.64,0,0,1-2.6,2,21.25,21.25,0,0,1-3,0,3.47,3.47,0,0,0-2.78,1.14,20.55,20.55,0,0,0-2.95,4.63q-1.77,3.47-8,14.82Q476,106.44,478.08,112a13.07,13.07,0,0,0,6.69,7.16,15.54,15.54,0,0,0,6.38,1.78,10.31,10.31,0,0,0,5.6-1.18,10.8,10.8,0,0,0,3.25-2.71,30,30,0,0,0,3.07-5l4.5-8.77q5-10.19,5.48-12.11a4.6,4.6,0,0,0-1.18-4.05,11.29,11.29,0,0,1-2-3.12,2.89,2.89,0,0,1,.21-2.26c.81-1.59,2.36-2.27,4.63-2s5.51,1.44,9.71,3.6,6.92,4,8.39,5.66,1.82,3.28,1,4.85a2.87,2.87,0,0,1-1.36,1.46,12.75,12.75,0,0,1-3.39.43c-1.81.08-3.06.52-3.73,1.33A104.49,104.49,0,0,0,519.76,107.08Z" transform="translate(-3.99 -17.89)"/><path class="cls-11" d="M567.3,112.5a43.64,43.64,0,0,1,8.18,9.19,5.45,5.45,0,0,0,1,1.08,13.13,13.13,0,0,0,2.62,1,4.17,4.17,0,0,1,1.37.71c1.59,1.22,2.3,3.77,2.12,7.63s-1.12,6.93-2.87,9.2a6.2,6.2,0,0,1-3.78,2.44,4.68,4.68,0,0,1-3.94-.86,5.36,5.36,0,0,1-1.87-2.35,51.14,51.14,0,0,1-1.3-6.37q-1.2-7.26-5.31-10.43a6.26,6.26,0,0,0-3.91-1.49,3.89,3.89,0,0,0-3.13,1.61q-2.38,3.07,1.84,8.83a98.69,98.69,0,0,1,7,10.4q5.65,11.35-.93,19.91a18.84,18.84,0,0,1-15.68,7.59q-10.1,0-20.27-7.81a57.74,57.74,0,0,1-8.74-8.47q-4.21-4.95-5.32-8.14c-.55-1.63-.31-4.06.74-7.31a28,28,0,0,1,4.36-8.48,5.27,5.27,0,0,1,2.74-2.08,3.43,3.43,0,0,1,3.11.59,4.48,4.48,0,0,1,1.52,3.38,67.45,67.45,0,0,1-.34,7.7,12.11,12.11,0,0,0,1.62,6.51,17.58,17.58,0,0,0,4.9,5.87,10.37,10.37,0,0,0,5,2.3,3.62,3.62,0,0,0,3.55-1.24,3.84,3.84,0,0,0,.61-3.43,16.26,16.26,0,0,0-2.67-5.12A70.48,70.48,0,0,1,534,136a29.69,29.69,0,0,1-2.38-7.18q-1.79-9.28,3.09-15.6a17.24,17.24,0,0,1,6.14-5,19.19,19.19,0,0,1,8.06-2Q558.71,105.89,567.3,112.5Z" transform="translate(-3.99 -17.89)"/><path class="cls-11" d="M603.91,145.19l15.66,16.87q4.75,5.12,7.15,7.27a32.3,32.3,0,0,0,5.12,3.77,5.35,5.35,0,0,1,1.2.9,5.06,5.06,0,0,1,1,4.72,16.41,16.41,0,0,1-5.21,8.87,7.67,7.67,0,0,1-4.2,2.22,4,4,0,0,1-3.54-1.33,3.85,3.85,0,0,1-1.12-2.1,11.27,11.27,0,0,1,.47-3.47,9.49,9.49,0,0,0-.46-6.39q-1.31-2.9-6-8c-2.33-2.52-4.2-3.63-5.61-3.35a6,6,0,0,0-2.41,1.29q-1.29,1.05-6.27,5.68c-1.32,1.22-1.93,2.19-1.84,2.92s1,2,2.72,3.89a4,4,0,0,0,2.44,1.47,4.41,4.41,0,0,0,2.78-1.12,19.87,19.87,0,0,1,3-1.94,3.57,3.57,0,0,1,2.07-.24,3.21,3.21,0,0,1,2.08,1.06,3.83,3.83,0,0,1,.86,3.48,12.38,12.38,0,0,1-2.29,4.29,35,35,0,0,1-4.59,5.15,26.64,26.64,0,0,1-10,6.29,3.92,3.92,0,0,1-4.3-1,2.45,2.45,0,0,1-.86-2.07,7.75,7.75,0,0,1,1.77-2.87q3.26-3.93-.31-7.77a2.89,2.89,0,0,0-2.81-1.15c-1,.21-2.28,1.11-4,2.67-1,1-2.3,2.26-3.79,3.91a28,28,0,0,0-2.82,3.45,2.78,2.78,0,0,0,.14,2.89,25.91,25.91,0,0,0,3.84,4.89q4.57,4.92,8.15,6.25a12.8,12.8,0,0,0,8.36-.18,11.53,11.53,0,0,1,4.1-.72,4,4,0,0,1,3.36,4.7,6.61,6.61,0,0,1-2.17,3.69,21.49,21.49,0,0,1-5.86,3.55A32.93,32.93,0,0,1,592.2,220a8.93,8.93,0,0,1-2.65.14,2.7,2.7,0,0,1-1.54-.89,17.27,17.27,0,0,1-1.48-2,50.35,50.35,0,0,0-4.71-6.07L556,183.4a5.5,5.5,0,0,1-1.67-3.28,3.41,3.41,0,0,1,1.23-2.85,2.75,2.75,0,0,1,1.74-.89,9,9,0,0,1,2.76.8,4.81,4.81,0,0,0,2.41.49,6.34,6.34,0,0,0,2.52-1,88.5,88.5,0,0,0,14.36-11.32Q592,153.62,593.85,149a3.11,3.11,0,0,0,.25-1.58,9.74,9.74,0,0,0-.9-2.22A3.25,3.25,0,0,1,594,141a4.17,4.17,0,0,1,2.45-1.12,4,4,0,0,1,2.6.64A35.89,35.89,0,0,1,603.91,145.19Z" transform="translate(-3.99 -17.89)"/><path class="cls-10" d="M57.81,132.54l-.45,6.64q-.28,3.63,1.1,5.16a4.76,4.76,0,0,0,2,1.25,19.44,19.44,0,0,0,3.72.74l25.43,3.12a31.31,31.31,0,0,0,4.5.37,11.77,11.77,0,0,0,2.87-.64,8.72,8.72,0,0,1,4.07-.6,5.07,5.07,0,0,1,2.94,1.74q3.18,3.52-1.83,8.06l-12.57,11.4A4.48,4.48,0,0,1,87,171.06a20.74,20.74,0,0,1-4.9-.64,129.55,129.55,0,0,0-14.23-2,44.63,44.63,0,0,0-5-.24,3,3,0,0,0-1.94.63q-1.92,1.74,1.36,5.36,2.67,3,4.95,2.94l1.73-.23a4.58,4.58,0,0,1,4.41,1.26q2,2.19-.08,5.78t-9,9.85q-6.13,5.56-9.62,7.39a5.12,5.12,0,0,1-3,.54,4,4,0,0,1-2.54-1.29q-1.59-1.77-.74-4.83a5.25,5.25,0,0,0,.09-2.47,13,13,0,0,0-1.47-3,98,98,0,0,0-9.8-12.15q-8.42-9.3-12.63-12.55a8.2,8.2,0,0,0-2.8-1.62,6.3,6.3,0,0,0-2.86.11,4.44,4.44,0,0,1-4.54-1.27A4.27,4.27,0,0,1,13.26,159a11.31,11.31,0,0,1,2.4-4.83,61.07,61.07,0,0,1,7.89-8.36q5.2-4.71,8.63-6a4.5,4.5,0,0,1,5.27,1.28,3.87,3.87,0,0,1,1,1.86,12.38,12.38,0,0,1-.26,3.34,6.36,6.36,0,0,0,1,3.12A19.25,19.25,0,0,0,42,153.25c1.68,1.86,2.95,2.41,3.79,1.65a2.89,2.89,0,0,0,.87-2,56.25,56.25,0,0,0-.13-5.92q-.31-5.34-1.33-6.47a5.82,5.82,0,0,0-2.26-1.22,4.58,4.58,0,0,1-1.81-1.14c-1.48-1.64-1.65-3.59-.49-5.87s3.88-5.35,8.15-9.22a42,42,0,0,1,8.17-6.19q3.77-1.91,6.2.78a4.62,4.62,0,0,1,1.16,2.55,3.81,3.81,0,0,1-.49,2.59,19.5,19.5,0,0,1-3,3.18,9.79,9.79,0,0,0-2.26,2.8A11.87,11.87,0,0,0,57.81,132.54Z" transform="translate(-3.99 -17.89)"/><path class="cls-10" d="M89.7,93a49.82,49.82,0,0,1,8.54-4.54q5.76-2.34,7.92,1a2.77,2.77,0,0,1,.56,2,12.76,12.76,0,0,1-1.51,3.27q-1.15,2,.22,5.27t6.93,11.73q9.4,14.3,12.35,17.23a4.41,4.41,0,0,0,1.9,1.14,8.28,8.28,0,0,0,2.72,0c2.13-.34,3.67.21,4.61,1.63q2,3-1.86,7.12a62.66,62.66,0,0,1-11.3,9.14q-12.19,8-15.25,3.38-1.11-1.68.33-4.71a5.24,5.24,0,0,0,.15-4.5q-2.08-4.73-11.2-18.58-6.28-9.57-9-11.63a6.63,6.63,0,0,0-4.33-1.12,10.74,10.74,0,0,1-3.16-.33A3.25,3.25,0,0,1,76.62,109a3.46,3.46,0,0,1-.13-3.58,21.21,21.21,0,0,1,4.36-5.31A58.12,58.12,0,0,1,89.7,93Z" transform="translate(-3.99 -17.89)"/><path class="cls-10" d="M163.83,68.62l-2.46,6.18q-1.37,3.38-.51,5.25a4.7,4.7,0,0,0,1.47,1.79,19.05,19.05,0,0,0,3.32,1.84l23.27,10.73a31.25,31.25,0,0,0,4.18,1.71,11.36,11.36,0,0,0,2.92.27,8.63,8.63,0,0,1,4.06.67,5,5,0,0,1,2.27,2.56q2,4.32-4.19,7.11l-15.45,7a4.38,4.38,0,0,1-2.82.45,20.58,20.58,0,0,1-4.47-2.1,127.75,127.75,0,0,0-13-6.21,47.26,47.26,0,0,0-4.65-1.75,3.05,3.05,0,0,0-2,0c-1.57.72-1.69,2.56-.34,5.52q1.65,3.63,3.82,4.31l1.72.31a4.55,4.55,0,0,1,3.81,2.54q1.22,2.7-1.84,5.49T151.4,129A53.38,53.38,0,0,1,140,133.07a5.21,5.21,0,0,1-3.07-.41,4,4,0,0,1-2-2c-.66-1.44-.41-3,.76-4.82a5,5,0,0,0,.83-2.32,12.39,12.39,0,0,0-.46-3.36,98.49,98.49,0,0,0-5.63-14.56q-5.19-11.41-8.21-15.79A8.29,8.29,0,0,0,120,87.39a6.36,6.36,0,0,0-2.75-.76A4.43,4.43,0,0,1,113.33,84a4.28,4.28,0,0,1,0-3.79,11.46,11.46,0,0,1,3.76-3.87,61.85,61.85,0,0,1,10.06-5.56c4.27-1.93,7.62-3,10.06-3.09a4.49,4.49,0,0,1,4.62,2.82,3.9,3.9,0,0,1,.44,2.09A13,13,0,0,1,141,75.75,6.41,6.41,0,0,0,141,79a18.62,18.62,0,0,0,1.37,4.49c1,2.28,2.07,3.19,3.11,2.72A3,3,0,0,0,147,84.6a55.75,55.75,0,0,0,1.68-5.68c.89-3.46,1.12-5.64.7-6.57a6,6,0,0,0-1.77-1.85,4.48,4.48,0,0,1-1.39-1.63q-1.37-3,1.33-5.75t10.57-6.3a42.29,42.29,0,0,1,9.66-3.4q4.17-.68,5.67,2.63a4.55,4.55,0,0,1,.33,2.78,3.75,3.75,0,0,1-1.26,2.32,18.28,18.28,0,0,1-3.8,2.12,9.83,9.83,0,0,0-3,2A12,12,0,0,0,163.83,68.62Z" transform="translate(-3.99 -17.89)"/><path class="cls-10" d="M198.13,42.72a9.65,9.65,0,0,1,8.52,1.38,11.91,11.91,0,0,1,4.77,6.73,24.65,24.65,0,0,1,.43,11.28,36.18,36.18,0,0,1-4.5,12q-1.9,3.21-4.18,3.88a5,5,0,0,1-3,0,2.45,2.45,0,0,1-1.78-1.55,2.33,2.33,0,0,1,.43-1.72,28.31,28.31,0,0,0,2.47-5.83,7.77,7.77,0,0,0,0-4.12,3.15,3.15,0,0,0-2.18-2,16.23,16.23,0,0,1-5-3,9.63,9.63,0,0,1-2.51-4.35,10.11,10.11,0,0,1,.63-7.82A9.65,9.65,0,0,1,198.13,42.72Z" transform="translate(-3.99 -17.89)"/><path class="cls-10" d="M245.66,31.7A44,44,0,0,1,258,32a5.14,5.14,0,0,0,1.45,0,13,13,0,0,0,2.52-1.24,4.24,4.24,0,0,1,1.46-.52c2-.33,4.32.89,7,3.64s4.31,5.54,4.79,8.37a6.23,6.23,0,0,1-.79,4.42,4.62,4.62,0,0,1-3.31,2.3,5.29,5.29,0,0,1-3-.22,52.77,52.77,0,0,1-5.56-3.38q-6.13-4.06-11.25-3.21A6.2,6.2,0,0,0,247.57,44a3.86,3.86,0,0,0-1,3.38q.64,3.84,7.73,4.66a99.37,99.37,0,0,1,12.36,2q12.18,3.58,14,14.23a18.85,18.85,0,0,1-5.11,16.66q-6.84,7.41-19.52,9.53a57.57,57.57,0,0,1-12.15.65c-4.33-.2-7.52-.74-9.58-1.64q-2.36-1.07-4.85-5.52a27.6,27.6,0,0,1-3.25-9,5.29,5.29,0,0,1,.33-3.42,3.47,3.47,0,0,1,2.55-1.88,4.46,4.46,0,0,1,3.51,1.19A64.43,64.43,0,0,1,238,80.34a12.08,12.08,0,0,0,5.87,3.24,17.63,17.63,0,0,0,7.63.4,10.31,10.31,0,0,0,5.1-2.1,3.62,3.62,0,0,0,1.51-3.45,3.86,3.86,0,0,0-2.1-2.78,16.1,16.1,0,0,0-5.57-1.52,70.92,70.92,0,0,1-10.24-2A30.2,30.2,0,0,1,233.33,69q-8-5-9.33-12.88a17.38,17.38,0,0,1,.54-7.88A19.24,19.24,0,0,1,228.6,41Q235,33.49,245.66,31.7Z" transform="translate(-3.99 -17.89)"/><path class="cls-10" d="M331,26.15Q344.9,27.2,344.46,33a4.22,4.22,0,0,1-.91,2.49,9.24,9.24,0,0,1-2.88,2,4.71,4.71,0,0,0-2.43,2.65,33.74,33.74,0,0,0-1,7c-.15,2.08.14,3.39.88,3.93a4.21,4.21,0,0,0,2,.69q1.35.18,6.4.57c3.07.23,5,.21,5.75-.06s1.21-1.07,1.3-2.38a42.19,42.19,0,0,0,.09-8.25,4.57,4.57,0,0,0-1.86-3.33,9.54,9.54,0,0,1-2.45-2.09,3.21,3.21,0,0,1-.47-2.13,4.78,4.78,0,0,1,1.63-3.22,7.09,7.09,0,0,1,3.77-1.76A51.29,51.29,0,0,1,366,28.83q8.22.62,12,2.41t3.56,5A4.32,4.32,0,0,1,378.51,40a5.89,5.89,0,0,0-2.39,1.37,6.73,6.73,0,0,0-1.06,2.68q-.26,1.11-1.19,9.88t-1.32,14q-.68,9.06-.2,11.57a4.21,4.21,0,0,0,.67,1.84,18.44,18.44,0,0,0,2.68,2,3.06,3.06,0,0,1,1.48,3q-.26,3.39-4.41,4.63t-13.22.55q-7.95-.6-11.63-2.44-3.33-1.7-3.1-4.68a4.38,4.38,0,0,1,2.93-3.78,5,5,0,0,0,1.87-1.29,9.24,9.24,0,0,0,1.12-2.57,45,45,0,0,0,1.49-9.14c.14-1.87-.05-3.06-.56-3.54s-1.94-.82-4.26-1q-8-.6-10.25.13c-.62.19-1,.86-1.27,2a43.62,43.62,0,0,0-.67,5.25c-.26,3.4,0,5.87.88,7.43a8.11,8.11,0,0,0,2.18,2,3.74,3.74,0,0,1,1.61,3.67c-.15,2.08-1.72,3.57-4.69,4.45s-7.13,1.13-12.49.72a39,39,0,0,1-11.85-2.42,7.29,7.29,0,0,1-3-2.13,3.92,3.92,0,0,1-.94-2.79,3.33,3.33,0,0,1,.89-2.22,12,12,0,0,1,3.28-1.82A3.89,3.89,0,0,0,313,75.86a10.54,10.54,0,0,0,1-3.25A113.54,113.54,0,0,0,315.69,59c.08-1,.16-2.28.24-3.71q.61-10.74.74-12.25.33-3.84-.27-5.12T313,35a3,3,0,0,1-1.76-3q.35-4.5,9.22-5.59A52.76,52.76,0,0,1,331,26.15Z" transform="translate(-3.99 -17.89)"/><path class="cls-10" d="M427.53,41.3a32.17,32.17,0,0,1,17.59,11.76,34,34,0,0,1,5.94,13.84,32.16,32.16,0,0,1-.46,14.76A28.61,28.61,0,0,1,438.78,98a32.76,32.76,0,0,1-17.61,5.63,38.52,38.52,0,0,1-11.85-1.36,35.36,35.36,0,0,1-13.41-7.1,29.89,29.89,0,0,1-9.72-15,31.34,31.34,0,0,1,0-17.44,30.65,30.65,0,0,1,10.89-16.48,31,31,0,0,1,16.8-6.37A37.72,37.72,0,0,1,427.53,41.3ZM420,52.53a6.8,6.8,0,0,0-6.64,1.63,10.42,10.42,0,0,0-3.24,5.28,40.16,40.16,0,0,0-1.17,11.83A51.93,51.93,0,0,0,410.74,84a11.06,11.06,0,0,0,2.35,4.29,7.68,7.68,0,0,0,3.64,2.37,6.77,6.77,0,0,0,6-1,10.36,10.36,0,0,0,3.81-5.91A44.07,44.07,0,0,0,428,72.07a41,41,0,0,0-1.47-11.52,14.57,14.57,0,0,0-2.64-5.2A8.47,8.47,0,0,0,420,52.53Z" transform="translate(-3.99 -17.89)"/><path class="cls-10" d="M519.76,106l-5,9.73q-4.51,8.81-7.71,11.8-6.79,6.27-18.17,4.82a42.21,42.21,0,0,1-14.26-4.59q-12.78-6.56-17.35-16.6a17.67,17.67,0,0,1-1.63-9.59q.58-4.68,4.41-12.13,1.49-2.91,5.1-9.46,2.54-4.65,3.31-6.16A16.16,16.16,0,0,0,470.33,69a6.07,6.07,0,0,0-.95-3.51c-1.16-2-1.39-3.76-.67-5.17a4.07,4.07,0,0,1,2.75-2.07,8.19,8.19,0,0,1,4.36.18,59.6,59.6,0,0,1,10.81,4.43A55.85,55.85,0,0,1,497,69.41q3.78,3.14,2,6.52a3.64,3.64,0,0,1-2.6,2,19.68,19.68,0,0,1-3,0,3.5,3.5,0,0,0-2.78,1.14,20.55,20.55,0,0,0-2.95,4.63q-1.77,3.47-8,14.82-3.71,6.75-1.64,12.34a13,13,0,0,0,6.69,7.16,15.72,15.72,0,0,0,6.38,1.79,10.32,10.32,0,0,0,5.6-1.19A10.65,10.65,0,0,0,500,116a30,30,0,0,0,3.07-5l4.5-8.76q5-10.19,5.48-12.11a4.59,4.59,0,0,0-1.18-4,11.31,11.31,0,0,1-2-3.13,2.89,2.89,0,0,1,.21-2.26c.81-1.59,2.36-2.27,4.63-2s5.51,1.44,9.71,3.59,6.92,4,8.39,5.66,1.82,3.28,1,4.85a2.94,2.94,0,0,1-1.36,1.47,12.46,12.46,0,0,1-3.39.42c-1.81.08-3.06.52-3.73,1.34S522.84,100.09,519.76,106Z" transform="translate(-3.99 -17.89)"/><path class="cls-10" d="M567.3,111.38a43.9,43.9,0,0,1,8.18,9.19,5.56,5.56,0,0,0,1,1.09,14.17,14.17,0,0,0,2.62,1,4.2,4.2,0,0,1,1.37.72q2.38,1.83,2.12,7.62t-2.87,9.2a6.2,6.2,0,0,1-3.78,2.44,4.68,4.68,0,0,1-3.94-.86,5.36,5.36,0,0,1-1.87-2.35,50.7,50.7,0,0,1-1.3-6.37q-1.2-7.26-5.31-10.43a6.19,6.19,0,0,0-3.91-1.48,3.85,3.85,0,0,0-3.13,1.6q-2.38,3.09,1.84,8.83a98.69,98.69,0,0,1,7,10.4q5.65,11.37-.93,19.92a18.86,18.86,0,0,1-15.68,7.58q-10.1,0-20.27-7.81a57.18,57.18,0,0,1-8.74-8.46q-4.21-5-5.32-8.14c-.55-1.63-.31-4.07.74-7.32a28,28,0,0,1,4.36-8.48,5.27,5.27,0,0,1,2.74-2.08,3.46,3.46,0,0,1,3.11.59,4.48,4.48,0,0,1,1.52,3.38,67.66,67.66,0,0,1-.34,7.71,12.13,12.13,0,0,0,1.62,6.51,17.65,17.65,0,0,0,4.9,5.86,10.28,10.28,0,0,0,5,2.3,3.6,3.6,0,0,0,3.55-1.24,3.84,3.84,0,0,0,.61-3.43,16.12,16.12,0,0,0-2.67-5.11,70.46,70.46,0,0,1-5.48-8.89,29.55,29.55,0,0,1-2.38-7.18q-1.79-9.28,3.09-15.6a17.24,17.24,0,0,1,6.14-5,19,19,0,0,1,8.06-1.95Q558.71,104.76,567.3,111.38Z" transform="translate(-3.99 -17.89)"/><path class="cls-10" d="M603.91,144.07l15.66,16.87q4.75,5.12,7.15,7.27a32.3,32.3,0,0,0,5.12,3.77,6,6,0,0,1,1.2.9,5.08,5.08,0,0,1,1,4.73,16.39,16.39,0,0,1-5.21,8.86,7.69,7.69,0,0,1-4.2,2.23,4,4,0,0,1-3.54-1.34,3.82,3.82,0,0,1-1.12-2.1,11.27,11.27,0,0,1,.47-3.47,9.49,9.49,0,0,0-.46-6.39q-1.31-2.9-6-8-3.5-3.78-5.61-3.34a6,6,0,0,0-2.41,1.28q-1.29,1.05-6.27,5.68c-1.32,1.22-1.93,2.2-1.84,2.93s1,2,2.72,3.88a4,4,0,0,0,2.44,1.47,4.44,4.44,0,0,0,2.78-1.11,19.37,19.37,0,0,1,3-2,3.75,3.75,0,0,1,2.07-.24,3.26,3.26,0,0,1,2.08,1.06,3.85,3.85,0,0,1,.86,3.49,12.44,12.44,0,0,1-2.29,4.28,35.53,35.53,0,0,1-4.59,5.16,26.6,26.6,0,0,1-10,6.28,3.88,3.88,0,0,1-4.3-1,2.45,2.45,0,0,1-.86-2.07,7.75,7.75,0,0,1,1.77-2.87q3.26-3.93-.31-7.77a2.89,2.89,0,0,0-2.81-1.15,10.4,10.4,0,0,0-4,2.67c-1,1-2.3,2.26-3.79,3.92a27.4,27.4,0,0,0-2.82,3.44,2.78,2.78,0,0,0,.14,2.89,26.21,26.21,0,0,0,3.84,4.9q4.57,4.92,8.15,6.24a12.8,12.8,0,0,0,8.36-.18,11.53,11.53,0,0,1,4.1-.72,4,4,0,0,1,3.36,4.7,6.54,6.54,0,0,1-2.17,3.69,21.48,21.48,0,0,1-5.86,3.56,33.43,33.43,0,0,1-7.57,2.38,9.68,9.68,0,0,1-2.65.14,2.78,2.78,0,0,1-1.54-.9,17.27,17.27,0,0,1-1.48-2,51.15,51.15,0,0,0-4.71-6.07L556,182.28a5.48,5.48,0,0,1-1.67-3.27,3.44,3.44,0,0,1,1.23-2.86,2.68,2.68,0,0,1,1.74-.88,8.69,8.69,0,0,1,2.76.8,4.91,4.91,0,0,0,2.41.48,6.34,6.34,0,0,0,2.52-1,88.34,88.34,0,0,0,14.36-11.31q12.67-11.76,14.52-16.42a3.08,3.08,0,0,0,.25-1.57,9.39,9.39,0,0,0-.9-2.22,3.26,3.26,0,0,1,.76-4.19,4.1,4.1,0,0,1,2.45-1.11,4,4,0,0,1,2.6.63A35.89,35.89,0,0,1,603.91,144.07Z" transform="translate(-3.99 -17.89)"/><path class="cls-11" d="M64.1,699.9l-7.25-4.25q-7.66-4.42-11.29-6.3-3.29-1.61-4.64-2.4a9,9,0,0,1-4.22-4.79,6,6,0,0,1,.49-5.11,4.2,4.2,0,0,1,2.11-1.95,21.25,21.25,0,0,1,5-.67,6.56,6.56,0,0,0,4.17-2.08,93.5,93.5,0,0,0,7.16-9.06q8-11.13,18.28-28.32,3.77-6.3,4.16-8.87t-1.86-5.75q-2.65-3.63-.92-6.54a5.32,5.32,0,0,1,4.44-2.61A10.82,10.82,0,0,1,86.1,613q1.83,1.09,4.59,3,4.61,3,10.11,6.33,4,2.4,16.08,9.15c2.52,1.41,4.78,2.71,6.8,3.91a54.64,54.64,0,0,1,10.86,8.06,22.21,22.21,0,0,1,5.29,8.45q2.61,7.62-1.85,15.11a20.69,20.69,0,0,1-5.89,6.31,17,17,0,0,1-7.56,3.12c-1.86.26-3,.8-3.53,1.63s-.23,2.1.92,3.61a24.48,24.48,0,0,1,4.46,10.77,19,19,0,0,1-2.81,13.15,24.38,24.38,0,0,1-14.11,10.79q-12.54,4-27.19-4.75-2-1.18-9.64-6.12Zm20.07-25.2-3,5.12q-4.22,7-4.57,10t2.77,4.79q8.18,4.89,13.91-4.7,7.13-12-2-17.43c-1.58-.94-2.88-1.25-3.89-.93S85.24,672.9,84.17,674.7Zm18.52-31-6.62,11.1a8.68,8.68,0,0,0-1.55,4.12,3,3,0,0,0,1.7,2.47c2.66,1.59,5.1,1.94,7.34,1s4.38-3.06,6.46-6.55,2.93-6.37,2.74-9a7.34,7.34,0,0,0-3.84-6,3.45,3.45,0,0,0-3.24-.51Q104.33,640.93,102.69,643.67Z" transform="translate(-3.99 -17.89)"/><path class="cls-11" d="M229.72,711.65,225,726.22q-4.24,13.2-8,18.06-8,10.23-24,10.8A59.26,59.26,0,0,1,172.3,752q-19.17-6.15-27.77-19a24.75,24.75,0,0,1-4.42-12.89q-.26-6.6,3.33-17.77,1.41-4.35,4.9-14.24,2.44-7,3.17-9.26c1.07-3.3,1.55-5.67,1.46-7.1a8.52,8.52,0,0,0-2.1-4.63q-3.12-3.84-2.1-7a5.71,5.71,0,0,1,3.32-3.48,11.46,11.46,0,0,1,6.08-.75,83.84,83.84,0,0,1,15.94,3.67A78.67,78.67,0,0,1,190,666.28q5.92,3.48,4.3,8.56a5.11,5.11,0,0,1-3.14,3.41,29.5,29.5,0,0,1-4.17.7,4.87,4.87,0,0,0-3.58,2.21,28.74,28.74,0,0,0-3,7.07q-1.66,5.19-7.69,22.3-3.6,10.17.53,17.43,3.36,6,10.89,8.37a21.82,21.82,0,0,0,9.22,1,14.3,14.3,0,0,0,7.46-2.91,15,15,0,0,0,3.88-4.48,43.19,43.19,0,0,0,3.11-7.64L212,709.18q4.55-15.2,4.82-18c.17-1.86-.67-3.63-2.54-5.33a15.63,15.63,0,0,1-3.44-3.87,4,4,0,0,1-.23-3.17c.77-2.39,2.75-3.67,5.95-3.86s7.94.74,14.23,2.76,10.47,4,12.89,5.92,3.26,4.12,2.5,6.47a4,4,0,0,1-1.54,2.34,17.64,17.64,0,0,1-4.58,1.36c-2.5.52-4.12,1.41-4.86,2.69S232.64,702.83,229.72,711.65Z" transform="translate(-3.99 -17.89)"/><path class="cls-11" d="M282.7,736.19c-1.59-.12-2.63.28-3.14,1.21s-.9,3.14-1.16,6.64a59.83,59.83,0,0,0,.06,12.46,4.42,4.42,0,0,0,.8,2,10.42,10.42,0,0,0,2.25,1.87q3.6,2.34,3.34,5.72c-.21,2.76-2.1,4.57-5.66,5.46s-9.51,1-17.8.39q-23.14-1.74-22.49-10.5a4,4,0,0,1,.87-2.36,14.63,14.63,0,0,1,3.32-2.3,9.23,9.23,0,0,0,4-4,31.33,31.33,0,0,0,2-8.44q.65-4.41,2.71-31.81.66-8.7,0-11.89a7,7,0,0,0-3.41-4.85,11.78,11.78,0,0,1-3.51-2.68,4.29,4.29,0,0,1-.73-2.92,5.49,5.49,0,0,1,2.09-3.9,10.91,10.91,0,0,1,5.16-2.16,31.26,31.26,0,0,1,7.44-.13c1.37.1,4.8.57,10.27,1.4,1,.16,2.68.33,4.93.5q5.64.42,15.07.38c4,0,6.77.06,8.35.18q13.39,1,21.66,8.11,7.44,6.42,6.67,16.73a20.54,20.54,0,0,1-3.54,10.28,17.79,17.79,0,0,1-8.11,6.53c-1.38.56-2.11,1.3-2.18,2.22q-.13,1.81,2.85,3.17,6.39,2.88,9.09,7.92t3.26,15.09c.17,2.78.58,4.61,1.23,5.47s2.23,1.78,4.76,2.72a3.73,3.73,0,0,1,1.88,1.75,4.77,4.77,0,0,1,.61,2.78,6.44,6.44,0,0,1-1.79,3.8,10.45,10.45,0,0,1-4.11,2.8q-5.44,2-14.57,1.36-12.21-.93-17-7.76a25.71,25.71,0,0,1-3.49-7.56A129.14,129.14,0,0,1,291.88,748q-1-6-3-8.66A8.73,8.73,0,0,0,282.7,736.19ZM281.47,704l-1.78,14.53c0,.12,0,.31-.05.56a4.82,4.82,0,0,0,.44,3,3.52,3.52,0,0,0,2.6,1q5.51.42,8.22-2.24t3.19-8.92q.9-12.06-7.66-12.71a4.42,4.42,0,0,0-3.53.86A6.61,6.61,0,0,0,281.47,704Z" transform="translate(-3.99 -17.89)"/><path class="cls-11" d="M382.7,682.33a50.71,50.71,0,0,1,15.66,0,18.05,18.05,0,0,0,4.57.41,20.93,20.93,0,0,0,5-2.19,8.29,8.29,0,0,1,2.61-.83c2.31-.34,4.73.7,7.24,3.12a23.33,23.33,0,0,1,7.2,13.66,13.3,13.3,0,0,1-1.44,9,8.83,8.83,0,0,1-6.62,4.33,11.83,11.83,0,0,1-7.46-1.57,52.61,52.61,0,0,1-6-5.08q-8.06-7.38-16.93-6.07A15.72,15.72,0,0,0,374.57,705q-3.88,6.59-2.42,16.58,2.18,14.84,11.27,24.15a22.6,22.6,0,0,0,7.72,5.05,15.81,15.81,0,0,0,8.21,1.11,7.15,7.15,0,0,0,5-2.91,7.67,7.67,0,0,0,1.27-5.8q-.44-3-2.36-4a3,3,0,0,0-1.36-.4,35.55,35.55,0,0,0-3.58.43,6.16,6.16,0,0,1-4.68-1.06,5.79,5.79,0,0,1-2.41-4q-.75-5.15,5.76-8.33a58.63,58.63,0,0,1,17-4.89,61.79,61.79,0,0,1,17.94-.41q7.08,1.11,7.89,6.64a5.55,5.55,0,0,1-1,4.11,6.53,6.53,0,0,1-3.74,2.54,5.37,5.37,0,0,0-2.69,1.38,8.14,8.14,0,0,0-.86,3.39,32.82,32.82,0,0,1-8,18,39.26,39.26,0,0,1-11.84,9,49.8,49.8,0,0,1-15.49,4.87,51.3,51.3,0,0,1-25.87-2.61,44,44,0,0,1-28.48-35.2,41.16,41.16,0,0,1,2.95-22.24,43.8,43.8,0,0,1,15.6-19.4A50.21,50.21,0,0,1,382.7,682.33Z" transform="translate(-3.99 -17.89)"/><path class="cls-11" d="M441.73,672l30.11-11.52Q481,657,485,655a45.17,45.17,0,0,0,7.58-4.68,8.37,8.37,0,0,1,1.8-1.09q3-1.17,6.65,1.22a22.86,22.86,0,0,1,8.79,11.41,10.63,10.63,0,0,1,.69,6.62A5.55,5.55,0,0,1,507,672.4a5.42,5.42,0,0,1-3.32.36,15.79,15.79,0,0,1-4.26-2.43,13.27,13.27,0,0,0-8.54-2.74q-4.45.18-13.48,3.64-6.74,2.58-7.28,5.54a8.41,8.41,0,0,0,.41,3.8q.69,2.23,4.09,11.13c.9,2.35,1.85,3.65,2.84,3.92s3.16-.23,6.48-1.5a5.54,5.54,0,0,0,3.18-2.4,6.21,6.21,0,0,0,0-4.2,26.2,26.2,0,0,1-.93-5,5.09,5.09,0,0,1,.77-2.81,4.52,4.52,0,0,1,2.46-2.15,5.33,5.33,0,0,1,5,.71q1.88,1.23,4.38,5.21a49.61,49.61,0,0,1,4.28,8.67q3.56,9.26,2.94,16.27a5.46,5.46,0,0,1-3.57,5.06,3.46,3.46,0,0,1-3.15,0,10.78,10.78,0,0,1-2.79-3.8q-3.42-6.29-10.27-3.66c-1.76.67-2.75,1.69-3,3s.24,3.54,1.39,6.55c.71,1.83,1.74,4.16,3.11,7a40.13,40.13,0,0,0,3,5.47c.76,1,2,1.49,3.83,1.32a36.39,36.39,0,0,0,8.37-2.43q8.79-3.36,12.38-7.32t4.14-10.95a16.58,16.58,0,0,1,1.2-5.71,5.37,5.37,0,0,1,3-2.48,5.26,5.26,0,0,1,4.89.58,9.35,9.35,0,0,1,3.67,4.75,30.13,30.13,0,0,1,1.54,9.48,46.29,46.29,0,0,1-.86,11.08,13.27,13.27,0,0,1-1.21,3.51,3.83,3.83,0,0,1-2,1.53,22.66,22.66,0,0,1-3.36.88A71.87,71.87,0,0,0,516,735.3l-49.68,19a7.67,7.67,0,0,1-5.13.45,4.82,4.82,0,0,1-3.07-3.09,3.86,3.86,0,0,1-.24-2.73,12.64,12.64,0,0,1,2.49-3.16,7,7,0,0,0,1.89-2.88,9,9,0,0,0,.06-3.78q-1.46-9.58-7.19-24.59-8.66-22.6-13.73-27.45a4.57,4.57,0,0,0-1.91-1.15,13.37,13.37,0,0,0-3.36,0,4.55,4.55,0,0,1-5-3.17,5.75,5.75,0,0,1-.17-3.77,5.56,5.56,0,0,1,2.19-3A50.71,50.71,0,0,1,441.73,672Z" transform="translate(-3.99 -17.89)"/><path class="cls-11" d="M568.42,666.78c-1.33.87-1.91,1.83-1.75,2.87s1.21,3,3.14,6a59.87,59.87,0,0,0,7.67,9.83,4.39,4.39,0,0,0,1.85,1.1,10.31,10.31,0,0,0,2.92.11q4.29-.35,6.15,2.49,2.26,3.45-1.15,7.78t-13.86,11.18q-19.39,12.75-24.22,5.42a3.92,3.92,0,0,1-.75-2.4,14,14,0,0,1,1.23-3.84,9.26,9.26,0,0,0,.75-5.64c-.36-1.74-1.56-4.37-3.58-7.9q-2.18-3.88-17.28-26.84-4.8-7.29-7.25-9.43a7.06,7.06,0,0,0-5.67-1.75,11.81,11.81,0,0,1-4.41,0,4.23,4.23,0,0,1-2.36-1.87,5.46,5.46,0,0,1-.73-4.36,10.92,10.92,0,0,1,2.77-4.87,31.15,31.15,0,0,1,5.8-4.64c1.16-.76,4.15-2.48,9-5.17.92-.5,2.32-1.38,4.21-2.62q4.71-3.11,12.16-8.9,4.74-3.65,6.72-5Q561,611,571.89,611.56q9.81.53,15.49,9.17a20.39,20.39,0,0,1,3.47,10.3,17.72,17.72,0,0,1-2.42,10.12c-.75,1.29-.87,2.33-.37,3.09.67,1,2.06,1.28,4.19.78a18.33,18.33,0,0,1,12,.71q5.24,2.35,11.81,10,2.74,3.15,4.31,3.58t5.43-.76a3.79,3.79,0,0,1,2.56.24,4.79,4.79,0,0,1,2.18,1.83,6.51,6.51,0,0,1,.9,4.1,10.38,10.38,0,0,1-1.55,4.73q-3,4.94-10.7,10Q609,686.12,601,683.61a25.76,25.76,0,0,1-7.38-3.86,125.17,125.17,0,0,1-10.79-9.27c-3-2.79-5.55-4.46-7.68-5A8.7,8.7,0,0,0,568.42,666.78ZM547.8,642.05l7.45,12.59c.07.11.18.26.31.47.83,1.26,1.57,2,2.21,2.15a3.53,3.53,0,0,0,2.64-.83q4.62-3,5.14-6.8t-2.92-9q-6.66-10.12-13.83-5.39a4.38,4.38,0,0,0-2.26,2.84A6.5,6.5,0,0,0,547.8,642.05Z" transform="translate(-3.99 -17.89)"/><path class="cls-10" d="M64.27,700.64,57,696.38q-7.65-4.43-11.29-6.29c-2.18-1.07-3.73-1.87-4.63-2.4a9,9,0,0,1-4.23-4.79,6,6,0,0,1,.5-5.11,4.2,4.2,0,0,1,2.11-1.95,21.25,21.25,0,0,1,5-.67,6.56,6.56,0,0,0,4.17-2.08A92.35,92.35,0,0,0,55.8,664q8-11.13,18.29-28.32,3.76-6.3,4.16-8.87t-1.86-5.75q-2.65-3.63-.92-6.54a5.32,5.32,0,0,1,4.44-2.61,10.75,10.75,0,0,1,6.37,1.75q1.83,1.09,4.59,3,4.6,3,10.1,6.32,4.05,2.41,16.09,9.16,3.78,2.11,6.79,3.91a54.86,54.86,0,0,1,10.87,8.05,22.32,22.32,0,0,1,5.29,8.46q2.61,7.62-1.86,15.11a20.77,20.77,0,0,1-5.88,6.31,17,17,0,0,1-7.56,3.12c-1.86.26-3,.8-3.53,1.62s-.23,2.11.92,3.62a24.37,24.37,0,0,1,4.45,10.76,18.94,18.94,0,0,1-2.8,13.16A24.38,24.38,0,0,1,109.64,717q-12.54,4-27.19-4.75-2-1.2-9.64-6.12Q65.87,701.66,64.27,700.64Zm20.08-25.2-3,5.11q-4.22,7.07-4.57,10t2.76,4.79q8.19,4.89,13.91-4.71,7.14-12-2-17.42-2.37-1.41-3.9-.93C86.47,672.58,85.42,673.64,84.35,675.44Zm18.52-31-6.63,11.1a8.65,8.65,0,0,0-1.54,4.11,3,3,0,0,0,1.7,2.48c2.66,1.58,5.1,1.94,7.33,1s4.39-3.06,6.47-6.55,2.93-6.37,2.74-9a7.37,7.37,0,0,0-3.84-6.06,3.42,3.42,0,0,0-3.24-.5Q104.51,641.67,102.87,644.41Z" transform="translate(-3.99 -17.89)"/><path class="cls-10" d="M229.9,712.39,225.22,727q-4.25,13.2-8,18.06-8,10.23-24,10.8a59.54,59.54,0,0,1-20.75-3.11q-19.17-6.15-27.76-19a24.86,24.86,0,0,1-4.43-12.89q-.24-6.6,3.34-17.77,1.4-4.37,4.9-14.24,2.44-7,3.17-9.26,1.59-4.95,1.46-7.11a8.52,8.52,0,0,0-2.1-4.62q-3.12-3.84-2.1-7a5.63,5.63,0,0,1,3.32-3.48,11.43,11.43,0,0,1,6.07-.75,83.92,83.92,0,0,1,15.95,3.67A78.67,78.67,0,0,1,190.18,667q5.92,3.48,4.3,8.56a5.15,5.15,0,0,1-3.14,3.41,29.48,29.48,0,0,1-4.18.7,4.84,4.84,0,0,0-3.57,2.21,28.74,28.74,0,0,0-3,7.07q-1.67,5.19-7.69,22.3-3.6,10.17.53,17.43,3.36,6,10.88,8.37a21.88,21.88,0,0,0,9.23,1,14.33,14.33,0,0,0,7.46-2.91,14.74,14.74,0,0,0,3.87-4.49,41.26,41.26,0,0,0,3.11-7.63l4.22-13.14q4.56-15.2,4.83-18c.17-1.86-.67-3.63-2.54-5.33a15.42,15.42,0,0,1-3.44-3.87,4,4,0,0,1-.23-3.17q1.16-3.59,6-3.86T231,678.47q9.25,3,12.89,5.92c2.42,2,3.26,4.12,2.5,6.47a4.06,4.06,0,0,1-1.54,2.34,17.9,17.9,0,0,1-4.59,1.36q-3.73.77-4.85,2.69T229.9,712.39Z" transform="translate(-3.99 -17.89)"/><path class="cls-10" d="M282.88,736.92c-1.59-.11-2.63.29-3.14,1.22s-.9,3.14-1.16,6.64a59.84,59.84,0,0,0,.06,12.46,4.42,4.42,0,0,0,.8,2,10.42,10.42,0,0,0,2.25,1.87c2.39,1.56,3.51,3.47,3.34,5.72q-.31,4.13-5.66,5.46t-17.8.39q-23.15-1.76-22.49-10.5a3.94,3.94,0,0,1,.87-2.36,14.08,14.08,0,0,1,3.32-2.3,9.28,9.28,0,0,0,4-4,31.33,31.33,0,0,0,2-8.44q.64-4.41,2.71-31.81.66-8.7,0-11.89a7,7,0,0,0-3.4-4.85,11.77,11.77,0,0,1-3.51-2.69,4.21,4.21,0,0,1-.73-2.91,5.42,5.42,0,0,1,2.09-3.9,10.87,10.87,0,0,1,5.16-2.16,30.73,30.73,0,0,1,7.44-.13c1.37.1,4.8.57,10.27,1.4,1,.16,2.68.32,4.93.49q5.63.43,15.07.38c4,0,6.77.07,8.35.19q13.4,1,21.66,8.11,7.44,6.42,6.67,16.73a20.42,20.42,0,0,1-3.55,10.27,17.65,17.65,0,0,1-8.1,6.53c-1.38.57-2.11,1.31-2.18,2.23q-.13,1.81,2.84,3.17a18.36,18.36,0,0,1,9.1,7.92q2.7,5,3.26,15.09.25,4.17,1.23,5.47c.64.87,2.23,1.77,4.76,2.72a3.79,3.79,0,0,1,1.88,1.74,4.82,4.82,0,0,1,.61,2.79,6.47,6.47,0,0,1-1.79,3.79,10.34,10.34,0,0,1-4.12,2.81q-5.43,2-14.57,1.35-12.19-.91-17-7.75a25.46,25.46,0,0,1-3.49-7.56,124.35,124.35,0,0,1-2.88-13.93c-.66-4-1.67-6.92-3-8.66A8.77,8.77,0,0,0,282.88,736.92Zm-1.23-32.17-1.78,14.52c0,.13,0,.32-.05.57a4.85,4.85,0,0,0,.43,3,3.55,3.55,0,0,0,2.61,1c3.67.27,6.41-.47,8.22-2.25s2.87-4.74,3.18-8.91q.92-12.06-7.66-12.71a4.41,4.41,0,0,0-3.52.86A6.61,6.61,0,0,0,281.65,704.75Z" transform="translate(-3.99 -17.89)"/><path class="cls-10" d="M382.88,683.07a50.4,50.4,0,0,1,15.66,0,18,18,0,0,0,4.56.41,20.52,20.52,0,0,0,5-2.2,8.48,8.48,0,0,1,2.6-.82c2.32-.34,4.73.7,7.25,3.12a23.27,23.27,0,0,1,7.19,13.65,13.27,13.27,0,0,1-1.43,9,8.86,8.86,0,0,1-6.63,4.33,11.82,11.82,0,0,1-7.45-1.57,52.85,52.85,0,0,1-6-5.08q-8.06-7.38-16.93-6.08a15.75,15.75,0,0,0-11.95,7.78q-3.88,6.59-2.42,16.58,2.18,14.84,11.27,24.15a22.6,22.6,0,0,0,7.72,5.05,15.8,15.8,0,0,0,8.21,1.11,7.12,7.12,0,0,0,5-2.92,7.6,7.6,0,0,0,1.28-5.79q-.44-3-2.36-4a3,3,0,0,0-1.36-.4,35.55,35.55,0,0,0-3.58.43,6.19,6.19,0,0,1-4.69-1.06,5.84,5.84,0,0,1-2.4-4q-.75-5.16,5.76-8.33a58.32,58.32,0,0,1,17-4.89,61.44,61.44,0,0,1,17.94-.41q7.08,1.11,7.89,6.64a5.56,5.56,0,0,1-1,4.1,6.49,6.49,0,0,1-3.75,2.55,5.33,5.33,0,0,0-2.68,1.38,8.09,8.09,0,0,0-.86,3.39,32.75,32.75,0,0,1-8,18,39.12,39.12,0,0,1-11.84,9,50.07,50.07,0,0,1-15.49,4.87,51.3,51.3,0,0,1-25.87-2.62A44,44,0,0,1,342,733.31,41.16,41.16,0,0,1,345,711.07a43.88,43.88,0,0,1,15.6-19.41A50.2,50.2,0,0,1,382.88,683.07Z" transform="translate(-3.99 -17.89)"/><path class="cls-10" d="M441.9,672.77,472,661.25q9.14-3.5,13.18-5.48a45.17,45.17,0,0,0,7.58-4.68,8,8,0,0,1,1.8-1.09q3-1.17,6.64,1.22a22.88,22.88,0,0,1,8.8,11.41,10.7,10.7,0,0,1,.69,6.62,5.57,5.57,0,0,1-3.58,3.89,5.42,5.42,0,0,1-3.32.36,15.79,15.79,0,0,1-4.26-2.43,13.36,13.36,0,0,0-8.54-2.75q-4.45.2-13.48,3.65-6.73,2.58-7.28,5.54a8.42,8.42,0,0,0,.41,3.8q.69,2.24,4.09,11.13c.9,2.35,1.84,3.65,2.84,3.92s3.16-.23,6.48-1.5a5.54,5.54,0,0,0,3.18-2.4,6.21,6.21,0,0,0,0-4.2,27.49,27.49,0,0,1-.94-5,5.17,5.17,0,0,1,.77-2.81,4.63,4.63,0,0,1,2.47-2.16,5.37,5.37,0,0,1,5,.72,17.32,17.32,0,0,1,4.37,5.21,48.61,48.61,0,0,1,4.29,8.67q3.56,9.26,2.94,16.27a5.46,5.46,0,0,1-3.57,5.06,3.46,3.46,0,0,1-3.15,0,10.78,10.78,0,0,1-2.79-3.8q-3.42-6.29-10.27-3.66c-1.76.67-2.75,1.68-3,3.05s.24,3.54,1.39,6.55c.71,1.83,1.74,4.16,3.11,7a38.57,38.57,0,0,0,3,5.47c.76,1,2,1.49,3.83,1.32a36.39,36.39,0,0,0,8.37-2.43q8.79-3.36,12.38-7.32t4.13-11a16.53,16.53,0,0,1,1.21-5.7,5.37,5.37,0,0,1,3-2.48,5.26,5.26,0,0,1,4.89.58,9.3,9.3,0,0,1,3.66,4.74,29.93,29.93,0,0,1,1.55,9.49,46.19,46.19,0,0,1-.87,11.07,13,13,0,0,1-1.2,3.52,3.88,3.88,0,0,1-2,1.53,24,24,0,0,1-3.36.88A71.87,71.87,0,0,0,516.15,736l-49.68,19a7.76,7.76,0,0,1-5.14.45,4.81,4.81,0,0,1-3.06-3.09,3.86,3.86,0,0,1-.24-2.73,12.39,12.39,0,0,1,2.49-3.17,6.8,6.8,0,0,0,1.88-2.87,8.79,8.79,0,0,0,.07-3.78q-1.46-9.58-7.19-24.59-8.65-22.6-13.73-27.45a4.44,4.44,0,0,0-1.92-1.15,13.27,13.27,0,0,0-3.35,0,4.54,4.54,0,0,1-5-3.18,5.72,5.72,0,0,1-.17-3.76,5.62,5.62,0,0,1,2.19-3.06A51.94,51.94,0,0,1,441.9,672.77Z" transform="translate(-3.99 -17.89)"/><path class="cls-10" d="M568.6,667.51c-1.33.88-1.91,1.84-1.75,2.88s1.21,3,3.14,6a58.75,58.75,0,0,0,7.67,9.82,4.32,4.32,0,0,0,1.85,1.11,10.31,10.31,0,0,0,2.92.11c2.86-.23,4.9.6,6.15,2.49q2.26,3.45-1.16,7.78t-13.85,11.18q-19.4,12.75-24.22,5.42a3.92,3.92,0,0,1-.75-2.4,14.18,14.18,0,0,1,1.23-3.85,9.24,9.24,0,0,0,.75-5.64c-.36-1.73-1.56-4.36-3.58-7.89q-2.19-3.9-17.29-26.85-4.79-7.27-7.25-9.42a7,7,0,0,0-5.66-1.75,11.81,11.81,0,0,1-4.42,0,4.22,4.22,0,0,1-2.35-1.86,5.48,5.48,0,0,1-.73-4.37,11,11,0,0,1,2.77-4.86,31.15,31.15,0,0,1,5.8-4.64q1.74-1.14,9-5.17c.92-.5,2.33-1.38,4.21-2.62q4.73-3.11,12.17-8.9c3.15-2.43,5.4-4.08,6.72-5q11.22-7.36,22.11-6.8,9.81.53,15.49,9.17a20.39,20.39,0,0,1,3.47,10.3,17.72,17.72,0,0,1-2.42,10.12c-.75,1.29-.88,2.32-.37,3.09.67,1,2.06,1.27,4.19.78a18.33,18.33,0,0,1,12,.71q5.22,2.35,11.81,10c1.83,2.09,3.26,3.29,4.31,3.58s2.85,0,5.43-.76a3.79,3.79,0,0,1,2.56.23,4.87,4.87,0,0,1,2.18,1.84,6.44,6.44,0,0,1,.89,4.1,10.25,10.25,0,0,1-1.54,4.73q-3.06,4.94-10.71,10-10.21,6.72-18.17,4.22a25.46,25.46,0,0,1-7.38-3.85,128.93,128.93,0,0,1-10.79-9.27q-4.49-4.19-7.68-5A8.73,8.73,0,0,0,568.6,667.51ZM548,642.79l7.45,12.59c.07.1.18.26.31.47.83,1.26,1.57,2,2.21,2.15a3.53,3.53,0,0,0,2.64-.83c3.07-2,4.79-4.29,5.14-6.8s-.62-5.51-2.92-9Q556.15,631.25,549,636a4.43,4.43,0,0,0-2.27,2.84A6.59,6.59,0,0,0,548,642.79Z" transform="translate(-3.99 -17.89)"/></svg>