<svg id="Capa_1" data-name="Capa 1" xmlns="http://www.w3.org/2000/svg" viewBox="0 0 620.97 752.11"><path d="M57.81,132.54l-.45,6.64q-.28,3.63,1.1,5.16a4.76,4.76,0,0,0,2,1.25,19.44,19.44,0,0,0,3.72.74l25.43,3.12a31.31,31.31,0,0,0,4.5.37,11.77,11.77,0,0,0,2.87-.64,8.72,8.72,0,0,1,4.07-.6,5.07,5.07,0,0,1,2.94,1.74q3.18,3.52-1.83,8.06l-12.57,11.4A4.48,4.48,0,0,1,87,171.06a20.74,20.74,0,0,1-4.9-.64,129.55,129.55,0,0,0-14.23-2,44.63,44.63,0,0,0-5-.24,3,3,0,0,0-1.94.63q-1.92,1.74,1.36,5.36,2.67,3,4.95,2.94l1.73-.23a4.58,4.58,0,0,1,4.41,1.26q2,2.19-.08,5.78t-9,9.85q-6.13,5.56-9.62,7.39a5.12,5.12,0,0,1-3,.54,4,4,0,0,1-2.54-1.29q-1.59-1.77-.74-4.83a5.25,5.25,0,0,0,.09-2.47,13,13,0,0,0-1.47-3,98,98,0,0,0-9.8-12.15q-8.42-9.3-12.63-12.55a8.2,8.2,0,0,0-2.8-1.62,6.3,6.3,0,0,0-2.86.11,4.44,4.44,0,0,1-4.54-1.27A4.27,4.27,0,0,1,13.26,159a11.31,11.31,0,0,1,2.4-4.83,61.07,61.07,0,0,1,7.89-8.36q5.2-4.71,8.63-6a4.5,4.5,0,0,1,5.27,1.28,3.87,3.87,0,0,1,1,1.86,12.38,12.38,0,0,1-.26,3.34,6.36,6.36,0,0,0,1,3.12A19.25,19.25,0,0,0,42,153.25c1.68,1.86,2.95,2.41,3.79,1.65a2.89,2.89,0,0,0,.87-2,56.25,56.25,0,0,0-.13-5.92q-.31-5.34-1.33-6.47a5.82,5.82,0,0,0-2.26-1.22,4.58,4.58,0,0,1-1.81-1.14c-1.48-1.64-1.65-3.59-.49-5.87s3.88-5.35,8.15-9.22a42,42,0,0,1,8.17-6.19q3.77-1.91,6.2.78a4.62,4.62,0,0,1,1.16,2.55,3.81,3.81,0,0,1-.49,2.59,19.5,19.5,0,0,1-3,3.18,9.79,9.79,0,0,0-2.26,2.8A11.87,11.87,0,0,0,57.81,132.54Z" transform="translate(-13.21 -25.99)"/><path d="M89.7,93a49.82,49.82,0,0,1,8.54-4.54q5.76-2.34,7.92,1a2.77,2.77,0,0,1,.56,2,12.76,12.76,0,0,1-1.51,3.27q-1.15,2,.22,5.27t6.93,11.73q9.4,14.3,12.35,17.23a4.41,4.41,0,0,0,1.9,1.14,8.28,8.28,0,0,0,2.72,0c2.13-.34,3.67.21,4.61,1.63q2,3-1.86,7.12a62.66,62.66,0,0,1-11.3,9.14q-12.19,8-15.25,3.38-1.11-1.68.33-4.71a5.24,5.24,0,0,0,.15-4.5q-2.08-4.73-11.2-18.58-6.28-9.57-9-11.63a6.63,6.63,0,0,0-4.33-1.12,10.74,10.74,0,0,1-3.16-.33A3.25,3.25,0,0,1,76.62,109a3.46,3.46,0,0,1-.13-3.58,21.21,21.21,0,0,1,4.36-5.31A58.12,58.12,0,0,1,89.7,93Z" transform="translate(-13.21 -25.99)"/><path d="M163.83,68.62l-2.46,6.18q-1.37,3.38-.51,5.25a4.7,4.7,0,0,0,1.47,1.79,19.05,19.05,0,0,0,3.32,1.84l23.27,10.73a31.25,31.25,0,0,0,4.18,1.71,11.36,11.36,0,0,0,2.92.27,8.63,8.63,0,0,1,4.06.67,5,5,0,0,1,2.27,2.56q2,4.32-4.19,7.11l-15.45,7a4.38,4.38,0,0,1-2.82.45,20.58,20.58,0,0,1-4.47-2.1,127.75,127.75,0,0,0-13-6.21,47.26,47.26,0,0,0-4.65-1.75,3.05,3.05,0,0,0-2,0c-1.57.72-1.69,2.56-.34,5.52q1.65,3.63,3.82,4.31l1.72.31a4.55,4.55,0,0,1,3.81,2.54q1.22,2.7-1.84,5.49T151.4,129A53.38,53.38,0,0,1,140,133.07a5.21,5.21,0,0,1-3.07-.41,4,4,0,0,1-2-2c-.66-1.44-.41-3,.76-4.82a5,5,0,0,0,.83-2.32,12.39,12.39,0,0,0-.46-3.36,98.49,98.49,0,0,0-5.63-14.56q-5.19-11.41-8.21-15.79A8.29,8.29,0,0,0,120,87.39a6.36,6.36,0,0,0-2.75-.76A4.43,4.43,0,0,1,113.33,84a4.28,4.28,0,0,1,0-3.79,11.46,11.46,0,0,1,3.76-3.87,61.85,61.85,0,0,1,10.06-5.56c4.27-1.93,7.62-3,10.06-3.09a4.49,4.49,0,0,1,4.62,2.82,3.9,3.9,0,0,1,.44,2.09A13,13,0,0,1,141,75.75,6.41,6.41,0,0,0,141,79a18.62,18.62,0,0,0,1.37,4.49c1,2.28,2.07,3.19,3.11,2.72A3,3,0,0,0,147,84.6a55.75,55.75,0,0,0,1.68-5.68c.89-3.46,1.12-5.64.7-6.57a6,6,0,0,0-1.77-1.85,4.48,4.48,0,0,1-1.39-1.63q-1.37-3,1.33-5.75t10.57-6.3a42.29,42.29,0,0,1,9.66-3.4q4.17-.68,5.67,2.63a4.55,4.55,0,0,1,.33,2.78,3.75,3.75,0,0,1-1.26,2.32,18.28,18.28,0,0,1-3.8,2.12,9.83,9.83,0,0,0-3,2A12,12,0,0,0,163.83,68.62Z" transform="translate(-13.21 -25.99)"/><path d="M198.13,42.72a9.65,9.65,0,0,1,8.52,1.38,11.91,11.91,0,0,1,4.77,6.73,24.65,24.65,0,0,1,.43,11.28,36.18,36.18,0,0,1-4.5,12q-1.9,3.21-4.18,3.88a5,5,0,0,1-3,0,2.45,2.45,0,0,1-1.78-1.55,2.33,2.33,0,0,1,.43-1.72,28.31,28.31,0,0,0,2.47-5.83,7.77,7.77,0,0,0,0-4.12,3.15,3.15,0,0,0-2.18-2,16.23,16.23,0,0,1-5-3,9.63,9.63,0,0,1-2.51-4.35,10.11,10.11,0,0,1,.63-7.82A9.65,9.65,0,0,1,198.13,42.72Z" transform="translate(-13.21 -25.99)"/><path d="M245.66,31.7A44,44,0,0,1,258,32a5.14,5.14,0,0,0,1.45,0,13,13,0,0,0,2.52-1.24,4.24,4.24,0,0,1,1.46-.52c2-.33,4.32.89,7,3.64s4.31,5.54,4.79,8.37a6.23,6.23,0,0,1-.79,4.42,4.62,4.62,0,0,1-3.31,2.3,5.29,5.29,0,0,1-3-.22,52.77,52.77,0,0,1-5.56-3.38q-6.13-4.06-11.25-3.21A6.2,6.2,0,0,0,247.57,44a3.86,3.86,0,0,0-1,3.38q.64,3.84,7.73,4.66a99.37,99.37,0,0,1,12.36,2q12.18,3.58,14,14.23a18.85,18.85,0,0,1-5.11,16.66q-6.84,7.41-19.52,9.53a57.57,57.57,0,0,1-12.15.65c-4.33-.2-7.52-.74-9.58-1.64q-2.36-1.07-4.85-5.52a27.6,27.6,0,0,1-3.25-9,5.29,5.29,0,0,1,.33-3.42,3.47,3.47,0,0,1,2.55-1.88,4.46,4.46,0,0,1,3.51,1.19A64.43,64.43,0,0,1,238,80.34a12.08,12.08,0,0,0,5.87,3.24,17.63,17.63,0,0,0,7.63.4,10.31,10.31,0,0,0,5.1-2.1,3.62,3.62,0,0,0,1.51-3.45,3.86,3.86,0,0,0-2.1-2.78,16.1,16.1,0,0,0-5.57-1.52,70.92,70.92,0,0,1-10.24-2A30.2,30.2,0,0,1,233.33,69q-8-5-9.33-12.88a17.38,17.38,0,0,1,.54-7.88A19.24,19.24,0,0,1,228.6,41Q235,33.49,245.66,31.7Z" transform="translate(-13.21 -25.99)"/><path d="M331,26.15Q344.9,27.2,344.46,33a4.22,4.22,0,0,1-.91,2.49,9.24,9.24,0,0,1-2.88,2,4.71,4.71,0,0,0-2.43,2.65,33.74,33.74,0,0,0-1,7c-.15,2.08.14,3.39.88,3.93a4.21,4.21,0,0,0,2,.69q1.35.18,6.4.57c3.07.23,5,.21,5.75-.06s1.21-1.07,1.3-2.38a42.19,42.19,0,0,0,.09-8.25,4.57,4.57,0,0,0-1.86-3.33,9.54,9.54,0,0,1-2.45-2.09,3.21,3.21,0,0,1-.47-2.13,4.78,4.78,0,0,1,1.63-3.22,7.09,7.09,0,0,1,3.77-1.76A51.29,51.29,0,0,1,366,28.83q8.22.62,12,2.41t3.56,5A4.32,4.32,0,0,1,378.51,40a5.89,5.89,0,0,0-2.39,1.37,6.73,6.73,0,0,0-1.06,2.68q-.26,1.11-1.19,9.88t-1.32,14q-.68,9.06-.2,11.57a4.21,4.21,0,0,0,.67,1.84,18.44,18.44,0,0,0,2.68,2,3.06,3.06,0,0,1,1.48,3q-.26,3.39-4.41,4.63t-13.22.55q-7.95-.6-11.63-2.44-3.33-1.7-3.1-4.68a4.38,4.38,0,0,1,2.93-3.78,5,5,0,0,0,1.87-1.29,9.24,9.24,0,0,0,1.12-2.57,45,45,0,0,0,1.49-9.14c.14-1.87-.05-3.06-.56-3.54s-1.94-.82-4.26-1q-8-.6-10.25.13c-.62.19-1,.86-1.27,2a43.62,43.62,0,0,0-.67,5.25c-.26,3.4,0,5.87.88,7.43a8.11,8.11,0,0,0,2.18,2,3.74,3.74,0,0,1,1.61,3.67c-.15,2.08-1.72,3.57-4.69,4.45s-7.13,1.13-12.49.72a39,39,0,0,1-11.85-2.42,7.29,7.29,0,0,1-3-2.13,3.92,3.92,0,0,1-.94-2.79,3.33,3.33,0,0,1,.89-2.22,12,12,0,0,1,3.28-1.82A3.89,3.89,0,0,0,313,75.86a10.54,10.54,0,0,0,1-3.25A113.54,113.54,0,0,0,315.69,59c.08-1,.16-2.28.24-3.71q.61-10.74.74-12.25.33-3.84-.27-5.12T313,35a3,3,0,0,1-1.76-3q.35-4.5,9.22-5.59A52.76,52.76,0,0,1,331,26.15Z" transform="translate(-13.21 -25.99)"/><path d="M427.53,41.3a32.17,32.17,0,0,1,17.59,11.76,34,34,0,0,1,5.94,13.84,32.16,32.16,0,0,1-.46,14.76A28.61,28.61,0,0,1,438.78,98a32.76,32.76,0,0,1-17.61,5.63,38.52,38.52,0,0,1-11.85-1.36,35.36,35.36,0,0,1-13.41-7.1,29.89,29.89,0,0,1-9.72-15,31.34,31.34,0,0,1,0-17.44,30.65,30.65,0,0,1,10.89-16.48,31,31,0,0,1,16.8-6.37A37.72,37.72,0,0,1,427.53,41.3ZM420,52.53a6.8,6.8,0,0,0-6.64,1.63,10.42,10.42,0,0,0-3.24,5.28,40.16,40.16,0,0,0-1.17,11.83A51.93,51.93,0,0,0,410.74,84a11.06,11.06,0,0,0,2.35,4.29,7.68,7.68,0,0,0,3.64,2.37,6.77,6.77,0,0,0,6-1,10.36,10.36,0,0,0,3.81-5.91A44.07,44.07,0,0,0,428,72.07a41,41,0,0,0-1.47-11.52,14.57,14.57,0,0,0-2.64-5.2A8.47,8.47,0,0,0,420,52.53Z" transform="translate(-13.21 -25.99)"/><path d="M519.76,106l-5,9.73q-4.51,8.81-7.71,11.8-6.79,6.27-18.17,4.82a42.21,42.21,0,0,1-14.26-4.59q-12.78-6.56-17.35-16.6a17.67,17.67,0,0,1-1.63-9.59q.58-4.68,4.41-12.13,1.49-2.91,5.1-9.46,2.54-4.65,3.31-6.16A16.16,16.16,0,0,0,470.33,69a6.07,6.07,0,0,0-.95-3.51c-1.16-2-1.39-3.76-.67-5.17a4.07,4.07,0,0,1,2.75-2.07,8.19,8.19,0,0,1,4.36.18,59.6,59.6,0,0,1,10.81,4.43A55.85,55.85,0,0,1,497,69.41q3.78,3.14,2,6.52a3.64,3.64,0,0,1-2.6,2,19.68,19.68,0,0,1-3,0,3.5,3.5,0,0,0-2.78,1.14,20.55,20.55,0,0,0-2.95,4.63q-1.77,3.47-8,14.82-3.71,6.75-1.64,12.34a13,13,0,0,0,6.69,7.16,15.72,15.72,0,0,0,6.38,1.79,10.32,10.32,0,0,0,5.6-1.19A10.65,10.65,0,0,0,500,116a30,30,0,0,0,3.07-5l4.5-8.76q5-10.19,5.48-12.11a4.59,4.59,0,0,0-1.18-4,11.31,11.31,0,0,1-2-3.13,2.89,2.89,0,0,1,.21-2.26c.81-1.59,2.36-2.27,4.63-2s5.51,1.44,9.71,3.59,6.92,4,8.39,5.66,1.82,3.28,1,4.85a2.94,2.94,0,0,1-1.36,1.47,12.46,12.46,0,0,1-3.39.42c-1.81.08-3.06.52-3.73,1.34S522.84,100.09,519.76,106Z" transform="translate(-13.21 -25.99)"/><path d="M567.3,111.38a43.9,43.9,0,0,1,8.18,9.19,5.56,5.56,0,0,0,1,1.09,14.17,14.17,0,0,0,2.62,1,4.2,4.2,0,0,1,1.37.72q2.38,1.83,2.12,7.62t-2.87,9.2a6.2,6.2,0,0,1-3.78,2.44,4.68,4.68,0,0,1-3.94-.86,5.36,5.36,0,0,1-1.87-2.35,50.7,50.7,0,0,1-1.3-6.37q-1.2-7.26-5.31-10.43a6.19,6.19,0,0,0-3.91-1.48,3.85,3.85,0,0,0-3.13,1.6q-2.38,3.09,1.84,8.83a98.69,98.69,0,0,1,7,10.4q5.65,11.37-.93,19.92a18.86,18.86,0,0,1-15.68,7.58q-10.1,0-20.27-7.81a57.18,57.18,0,0,1-8.74-8.46q-4.21-5-5.32-8.14c-.55-1.63-.31-4.07.74-7.32a28,28,0,0,1,4.36-8.48,5.27,5.27,0,0,1,2.74-2.08,3.46,3.46,0,0,1,3.11.59,4.48,4.48,0,0,1,1.52,3.38,67.66,67.66,0,0,1-.34,7.71,12.13,12.13,0,0,0,1.62,6.51,17.65,17.65,0,0,0,4.9,5.86,10.28,10.28,0,0,0,5,2.3,3.6,3.6,0,0,0,3.55-1.24,3.84,3.84,0,0,0,.61-3.43,16.12,16.12,0,0,0-2.67-5.11,70.46,70.46,0,0,1-5.48-8.89,29.55,29.55,0,0,1-2.38-7.18q-1.79-9.28,3.09-15.6a17.24,17.24,0,0,1,6.14-5,19,19,0,0,1,8.06-1.95Q558.71,104.76,567.3,111.38Z" transform="translate(-13.21 -25.99)"/><path d="M603.91,144.07l15.66,16.87q4.75,5.12,7.15,7.27a32.3,32.3,0,0,0,5.12,3.77,6,6,0,0,1,1.2.9,5.08,5.08,0,0,1,1,4.73,16.39,16.39,0,0,1-5.21,8.86,7.69,7.69,0,0,1-4.2,2.23,4,4,0,0,1-3.54-1.34,3.82,3.82,0,0,1-1.12-2.1,11.27,11.27,0,0,1,.47-3.47,9.49,9.49,0,0,0-.46-6.39q-1.31-2.9-6-8-3.5-3.78-5.61-3.34a6,6,0,0,0-2.41,1.28q-1.29,1.05-6.27,5.68c-1.32,1.22-1.93,2.2-1.84,2.93s1,2,2.72,3.88a4,4,0,0,0,2.44,1.47,4.44,4.44,0,0,0,2.78-1.11,19.37,19.37,0,0,1,3-2,3.75,3.75,0,0,1,2.07-.24,3.26,3.26,0,0,1,2.08,1.06,3.85,3.85,0,0,1,.86,3.49,12.44,12.44,0,0,1-2.29,4.28,35.53,35.53,0,0,1-4.59,5.16,26.6,26.6,0,0,1-10,6.28,3.88,3.88,0,0,1-4.3-1,2.45,2.45,0,0,1-.86-2.07,7.75,7.75,0,0,1,1.77-2.87q3.26-3.93-.31-7.77a2.89,2.89,0,0,0-2.81-1.15,10.4,10.4,0,0,0-4,2.67c-1,1-2.3,2.26-3.79,3.92a27.4,27.4,0,0,0-2.82,3.44,2.78,2.78,0,0,0,.14,2.89,26.21,26.21,0,0,0,3.84,4.9q4.57,4.92,8.15,6.24a12.8,12.8,0,0,0,8.36-.18,11.53,11.53,0,0,1,4.1-.72,4,4,0,0,1,3.36,4.7,6.54,6.54,0,0,1-2.17,3.69,21.48,21.48,0,0,1-5.86,3.56,33.43,33.43,0,0,1-7.57,2.38,9.68,9.68,0,0,1-2.65.14,2.78,2.78,0,0,1-1.54-.9,17.27,17.27,0,0,1-1.48-2,51.15,51.15,0,0,0-4.71-6.07L556,182.28a5.48,5.48,0,0,1-1.67-3.27,3.44,3.44,0,0,1,1.23-2.86,2.68,2.68,0,0,1,1.74-.88,8.69,8.69,0,0,1,2.76.8,4.91,4.91,0,0,0,2.41.48,6.34,6.34,0,0,0,2.52-1,88.34,88.34,0,0,0,14.36-11.31q12.67-11.76,14.52-16.42a3.08,3.08,0,0,0,.25-1.57,9.39,9.39,0,0,0-.9-2.22,3.26,3.26,0,0,1,.76-4.19,4.1,4.1,0,0,1,2.45-1.11,4,4,0,0,1,2.6.63A35.89,35.89,0,0,1,603.91,144.07Z" transform="translate(-13.21 -25.99)"/><path d="M64.27,700.64,57,696.38q-7.65-4.43-11.29-6.29c-2.18-1.07-3.73-1.87-4.63-2.4a9,9,0,0,1-4.23-4.79,6,6,0,0,1,.5-5.11,4.2,4.2,0,0,1,2.11-1.95,21.25,21.25,0,0,1,5-.67,6.56,6.56,0,0,0,4.17-2.08A92.35,92.35,0,0,0,55.8,664q8-11.13,18.29-28.32,3.76-6.3,4.16-8.87t-1.86-5.75q-2.65-3.63-.92-6.54a5.32,5.32,0,0,1,4.44-2.61,10.75,10.75,0,0,1,6.37,1.75q1.83,1.09,4.59,3,4.6,3,10.1,6.32,4.05,2.41,16.09,9.16,3.78,2.11,6.79,3.91a54.86,54.86,0,0,1,10.87,8.05,22.32,22.32,0,0,1,5.29,8.46q2.61,7.62-1.86,15.11a20.77,20.77,0,0,1-5.88,6.31,17,17,0,0,1-7.56,3.12c-1.86.26-3,.8-3.53,1.62s-.23,2.11.92,3.62a24.37,24.37,0,0,1,4.45,10.76,18.94,18.94,0,0,1-2.8,13.16A24.38,24.38,0,0,1,109.64,717q-12.54,4-27.19-4.75-2-1.2-9.64-6.12Q65.87,701.66,64.27,700.64Zm20.08-25.2-3,5.11q-4.22,7.07-4.57,10t2.76,4.79q8.19,4.89,13.91-4.71,7.14-12-2-17.42-2.37-1.41-3.9-.93C86.47,672.58,85.42,673.64,84.35,675.44Zm18.52-31-6.63,11.1a8.65,8.65,0,0,0-1.54,4.11,3,3,0,0,0,1.7,2.48c2.66,1.58,5.1,1.94,7.33,1s4.39-3.06,6.47-6.55,2.93-6.37,2.74-9a7.37,7.37,0,0,0-3.84-6.06,3.42,3.42,0,0,0-3.24-.5Q104.51,641.67,102.87,644.41Z" transform="translate(-13.21 -25.99)"/><path d="M229.9,712.39,225.22,727q-4.25,13.2-8,18.06-8,10.23-24,10.8a59.54,59.54,0,0,1-20.75-3.11q-19.17-6.15-27.76-19a24.86,24.86,0,0,1-4.43-12.89q-.24-6.6,3.34-17.77,1.4-4.37,4.9-14.24,2.44-7,3.17-9.26,1.59-4.95,1.46-7.11a8.52,8.52,0,0,0-2.1-4.62q-3.12-3.84-2.1-7a5.63,5.63,0,0,1,3.32-3.48,11.43,11.43,0,0,1,6.07-.75,83.92,83.92,0,0,1,15.95,3.67A78.67,78.67,0,0,1,190.18,667q5.92,3.48,4.3,8.56a5.15,5.15,0,0,1-3.14,3.41,29.48,29.48,0,0,1-4.18.7,4.84,4.84,0,0,0-3.57,2.21,28.74,28.74,0,0,0-3,7.07q-1.67,5.19-7.69,22.3-3.6,10.17.53,17.43,3.36,6,10.88,8.37a21.88,21.88,0,0,0,9.23,1,14.33,14.33,0,0,0,7.46-2.91,14.74,14.74,0,0,0,3.87-4.49,41.26,41.26,0,0,0,3.11-7.63l4.22-13.14q4.56-15.2,4.83-18c.17-1.86-.67-3.63-2.54-5.33a15.42,15.42,0,0,1-3.44-3.87,4,4,0,0,1-.23-3.17q1.16-3.59,6-3.86T231,678.47q9.25,3,12.89,5.92c2.42,2,3.26,4.12,2.5,6.47a4.06,4.06,0,0,1-1.54,2.34,17.9,17.9,0,0,1-4.59,1.36q-3.73.77-4.85,2.69T229.9,712.39Z" transform="translate(-13.21 -25.99)"/><path d="M282.88,736.92c-1.59-.11-2.63.29-3.14,1.22s-.9,3.14-1.16,6.64a59.84,59.84,0,0,0,.06,12.46,4.42,4.42,0,0,0,.8,2,10.42,10.42,0,0,0,2.25,1.87c2.39,1.56,3.51,3.47,3.34,5.72q-.31,4.13-5.66,5.46t-17.8.39q-23.15-1.76-22.49-10.5a3.94,3.94,0,0,1,.87-2.36,14.08,14.08,0,0,1,3.32-2.3,9.28,9.28,0,0,0,4-4,31.33,31.33,0,0,0,2-8.44q.64-4.41,2.71-31.81.66-8.7,0-11.89a7,7,0,0,0-3.4-4.85,11.77,11.77,0,0,1-3.51-2.69,4.21,4.21,0,0,1-.73-2.91,5.42,5.42,0,0,1,2.09-3.9,10.87,10.87,0,0,1,5.16-2.16,30.73,30.73,0,0,1,7.44-.13c1.37.1,4.8.57,10.27,1.4,1,.16,2.68.32,4.93.49q5.63.43,15.07.38c4,0,6.77.07,8.35.19q13.4,1,21.66,8.11,7.44,6.42,6.67,16.73a20.42,20.42,0,0,1-3.55,10.27,17.65,17.65,0,0,1-8.1,6.53c-1.38.57-2.11,1.31-2.18,2.23q-.13,1.81,2.84,3.17a18.36,18.36,0,0,1,9.1,7.92q2.7,5,3.26,15.09.25,4.17,1.23,5.47c.64.87,2.23,1.77,4.76,2.72a3.79,3.79,0,0,1,1.88,1.74,4.82,4.82,0,0,1,.61,2.79,6.47,6.47,0,0,1-1.79,3.79,10.34,10.34,0,0,1-4.12,2.81q-5.43,2-14.57,1.35-12.19-.91-17-7.75a25.46,25.46,0,0,1-3.49-7.56,124.35,124.35,0,0,1-2.88-13.93c-.66-4-1.67-6.92-3-8.66A8.77,8.77,0,0,0,282.88,736.92Zm-1.23-32.17-1.78,14.52c0,.13,0,.32-.05.57a4.85,4.85,0,0,0,.43,3,3.55,3.55,0,0,0,2.61,1c3.67.27,6.41-.47,8.22-2.25s2.87-4.74,3.18-8.91q.92-12.06-7.66-12.71a4.41,4.41,0,0,0-3.52.86A6.61,6.61,0,0,0,281.65,704.75Z" transform="translate(-13.21 -25.99)"/><path d="M382.88,683.07a50.4,50.4,0,0,1,15.66,0,18,18,0,0,0,4.56.41,20.52,20.52,0,0,0,5-2.2,8.48,8.48,0,0,1,2.6-.82c2.32-.34,4.73.7,7.25,3.12a23.27,23.27,0,0,1,7.19,13.65,13.27,13.27,0,0,1-1.43,9,8.86,8.86,0,0,1-6.63,4.33,11.82,11.82,0,0,1-7.45-1.57,52.85,52.85,0,0,1-6-5.08q-8.06-7.38-16.93-6.08a15.75,15.75,0,0,0-11.95,7.78q-3.88,6.59-2.42,16.58,2.18,14.84,11.27,24.15a22.6,22.6,0,0,0,7.72,5.05,15.8,15.8,0,0,0,8.21,1.11,7.12,7.12,0,0,0,5-2.92,7.6,7.6,0,0,0,1.28-5.79q-.44-3-2.36-4a3,3,0,0,0-1.36-.4,35.55,35.55,0,0,0-3.58.43,6.19,6.19,0,0,1-4.69-1.06,5.84,5.84,0,0,1-2.4-4q-.75-5.16,5.76-8.33a58.32,58.32,0,0,1,17-4.89,61.44,61.44,0,0,1,17.94-.41q7.08,1.11,7.89,6.64a5.56,5.56,0,0,1-1,4.1,6.49,6.49,0,0,1-3.75,2.55,5.33,5.33,0,0,0-2.68,1.38,8.09,8.09,0,0,0-.86,3.39,32.75,32.75,0,0,1-8,18,39.12,39.12,0,0,1-11.84,9,50.07,50.07,0,0,1-15.49,4.87,51.3,51.3,0,0,1-25.87-2.62A44,44,0,0,1,342,733.31,41.16,41.16,0,0,1,345,711.07a43.88,43.88,0,0,1,15.6-19.41A50.2,50.2,0,0,1,382.88,683.07Z" transform="translate(-13.21 -25.99)"/><path d="M441.9,672.77,472,661.25q9.14-3.5,13.18-5.48a45.17,45.17,0,0,0,7.58-4.68,8,8,0,0,1,1.8-1.09q3-1.17,6.64,1.22a22.88,22.88,0,0,1,8.8,11.41,10.7,10.7,0,0,1,.69,6.62,5.57,5.57,0,0,1-3.58,3.89,5.42,5.42,0,0,1-3.32.36,15.79,15.79,0,0,1-4.26-2.43,13.36,13.36,0,0,0-8.54-2.75q-4.45.2-13.48,3.65-6.73,2.58-7.28,5.54a8.42,8.42,0,0,0,.41,3.8q.69,2.24,4.09,11.13c.9,2.35,1.84,3.65,2.84,3.92s3.16-.23,6.48-1.5a5.54,5.54,0,0,0,3.18-2.4,6.21,6.21,0,0,0,0-4.2,27.49,27.49,0,0,1-.94-5,5.17,5.17,0,0,1,.77-2.81,4.63,4.63,0,0,1,2.47-2.16,5.37,5.37,0,0,1,5,.72,17.32,17.32,0,0,1,4.37,5.21,48.61,48.61,0,0,1,4.29,8.67q3.56,9.26,2.94,16.27a5.46,5.46,0,0,1-3.57,5.06,3.46,3.46,0,0,1-3.15,0,10.78,10.78,0,0,1-2.79-3.8q-3.42-6.29-10.27-3.66c-1.76.67-2.75,1.68-3,3.05s.24,3.54,1.39,6.55c.71,1.83,1.74,4.16,3.11,7a38.57,38.57,0,0,0,3,5.47c.76,1,2,1.49,3.83,1.32a36.39,36.39,0,0,0,8.37-2.43q8.79-3.36,12.38-7.32t4.13-11a16.53,16.53,0,0,1,1.21-5.7,5.37,5.37,0,0,1,3-2.48,5.26,5.26,0,0,1,4.89.58,9.3,9.3,0,0,1,3.66,4.74,29.93,29.93,0,0,1,1.55,9.49,46.19,46.19,0,0,1-.87,11.07,13,13,0,0,1-1.2,3.52,3.88,3.88,0,0,1-2,1.53,24,24,0,0,1-3.36.88A71.87,71.87,0,0,0,516.15,736l-49.68,19a7.76,7.76,0,0,1-5.14.45,4.81,4.81,0,0,1-3.06-3.09,3.86,3.86,0,0,1-.24-2.73,12.39,12.39,0,0,1,2.49-3.17,6.8,6.8,0,0,0,1.88-2.87,8.79,8.79,0,0,0,.07-3.78q-1.46-9.58-7.19-24.59-8.65-22.6-13.73-27.45a4.44,4.44,0,0,0-1.92-1.15,13.27,13.27,0,0,0-3.35,0,4.54,4.54,0,0,1-5-3.18,5.72,5.72,0,0,1-.17-3.76,5.62,5.62,0,0,1,2.19-3.06A51.94,51.94,0,0,1,441.9,672.77Z" transform="translate(-13.21 -25.99)"/><path d="M568.6,667.51c-1.33.88-1.91,1.84-1.75,2.88s1.21,3,3.14,6a58.75,58.75,0,0,0,7.67,9.82,4.32,4.32,0,0,0,1.85,1.11,10.31,10.31,0,0,0,2.92.11c2.86-.23,4.9.6,6.15,2.49q2.26,3.45-1.16,7.78t-13.85,11.18q-19.4,12.75-24.22,5.42a3.92,3.92,0,0,1-.75-2.4,14.18,14.18,0,0,1,1.23-3.85,9.24,9.24,0,0,0,.75-5.64c-.36-1.73-1.56-4.36-3.58-7.89q-2.19-3.9-17.29-26.85-4.79-7.27-7.25-9.42a7,7,0,0,0-5.66-1.75,11.81,11.81,0,0,1-4.42,0,4.22,4.22,0,0,1-2.35-1.86,5.48,5.48,0,0,1-.73-4.37,11,11,0,0,1,2.77-4.86,31.15,31.15,0,0,1,5.8-4.64q1.74-1.14,9-5.17c.92-.5,2.33-1.38,4.21-2.62q4.73-3.11,12.17-8.9c3.15-2.43,5.4-4.08,6.72-5q11.22-7.36,22.11-6.8,9.81.53,15.49,9.17a20.39,20.39,0,0,1,3.47,10.3,17.72,17.72,0,0,1-2.42,10.12c-.75,1.29-.88,2.32-.37,3.09.67,1,2.06,1.27,4.19.78a18.33,18.33,0,0,1,12,.71q5.22,2.35,11.81,10c1.83,2.09,3.26,3.29,4.31,3.58s2.85,0,5.43-.76a3.79,3.79,0,0,1,2.56.23,4.87,4.87,0,0,1,2.18,1.84,6.44,6.44,0,0,1,.89,4.1,10.25,10.25,0,0,1-1.54,4.73q-3.06,4.94-10.71,10-10.21,6.72-18.17,4.22a25.46,25.46,0,0,1-7.38-3.85,128.93,128.93,0,0,1-10.79-9.27q-4.49-4.19-7.68-5A8.73,8.73,0,0,0,568.6,667.51ZM548,642.79l7.45,12.59c.07.1.18.26.31.47.83,1.26,1.57,2,2.21,2.15a3.53,3.53,0,0,0,2.64-.83c3.07-2,4.79-4.29,5.14-6.8s-.62-5.51-2.92-9Q556.15,631.25,549,636a4.43,4.43,0,0,0-2.27,2.84A6.59,6.59,0,0,0,548,642.79Z" transform="translate(-13.21 -25.99)"/><path d="M336.47,660.56h-25.9c-.7-.13-1.39-.32-2.09-.39-6.84-.65-13.7-1.11-20.51-1.95a251,251,0,0,1-60.65-15.45c-31.76-12.43-60-30.35-83.6-55.07-26.94-28.18-44.55-61.17-50.69-100a22.38,22.38,0,0,1,3.7-16.87c.31-.45.6-.91.94-1.44a68.49,68.49,0,0,1-12.25-21.1A52.32,52.32,0,0,1,83.17,424H75.66c-.56-2.19-1.09-4.34-1.66-6.48-.28-1.06-.61-2.11-.92-3.17v-5.76a14.38,14.38,0,0,0,.79-2.49c1.23-9.55,5.3-17.85,11.09-25.41.39-.5.74-1,1.06-1.47a2.38,2.38,0,0,0-.12-.58c-5.79-10.54-7.46-21.81-6.1-33.65a8.65,8.65,0,0,0-.11-2.38,52.26,52.26,0,0,1,.82-20c2.15-9.64,6.36-18.39,11.5-26.75a11.83,11.83,0,0,0,1.56-3.95,173.34,173.34,0,0,1,9.06-32c11.46-29.34,29.48-54.07,52.89-75,24.26-21.65,52.08-37.17,82.81-47.55a264.75,264.75,0,0,1,72.58-13.51,22.37,22.37,0,0,0,2.54-.41H333.6a16.4,16.4,0,0,0,2.07.39,271.21,271.21,0,0,1,40.66,4.87A250.34,250.34,0,0,1,457,159.45c27,16.16,49.87,36.77,67.72,62.79a180,180,0,0,1,29.45,72.26c.84,4.9,1,9.72-1,14.37a3,3,0,0,0,.35,2.7,103.14,103.14,0,0,1,6.33,17.06,152.92,152.92,0,0,1,3.34,17.65,87.88,87.88,0,0,1,.33,20.56c-.32,3.62-1.41,7.17-2.14,10.69,2.32,3.43,4.88,6.82,7,10.46,3.41,5.85,5.84,12.08,6.16,19a9.1,9.1,0,0,0,.39,1.6v5.76c-.16.93-.39,1.86-.47,2.8a19,19,0,0,1-1.93,6.93H565.3a51.52,51.52,0,0,1-2.51,25.11,69.57,69.57,0,0,1-12.95,21.45,2.36,2.36,0,0,0,.11.49c.39.6.81,1.19,1.2,1.79a21.27,21.27,0,0,1,3.41,15.33,172.11,172.11,0,0,1-13.49,45.1c-13.09,28.81-32.35,52.83-56.92,72.57C442.28,639.53,394,656.5,340.74,660.11,339.32,660.2,337.9,660.41,336.47,660.56Zm-12.72-527.2A308.71,308.71,0,0,0,287.92,136a257.47,257.47,0,0,0-30,5.92A249.75,249.75,0,0,0,220,155.23a4.85,4.85,0,0,0-3,3.36c-1.06,3.77-2.37,7.47-3.36,11.26-3.77,14.35-5.4,28.87-3.27,43.68,2.44,16.95,9.83,31.46,21.47,43.87,9.63,10.26,21.1,18.05,33.51,24.52A218.89,218.89,0,0,0,304,297.17,373.89,373.89,0,0,0,361,309.11c8.86,1.18,17.75,2.1,26.65,3q10.72,1.06,21.48,1.77c6.93.45,13.87.75,20.81,1q11.75.36,23.49.45c4.07,0,8.14-.21,12.21-.3,8-.18,16-.28,24-.53,6.95-.22,13.89-.55,20.82-.94,7.89-.45,15.77-1.08,23.66-1.49a11.19,11.19,0,0,0,10.58-12.73c-.63-4.26-1.28-8.54-2.25-12.73-6.61-28.81-20.18-54-39.52-76.26a211.71,211.71,0,0,0-59.66-47.23c-29.49-15.92-61-25.07-94.32-28.32C340.53,134,332.12,133.81,323.75,133.36ZM182.21,493.66c0,1.66,0,2.84,0,4s.16,2.07.25,3.11c.37,4.29.53,8.62,1.16,12.88a134.41,134.41,0,0,0,14.56,44.93,108.34,108.34,0,0,0,25.51,31.48,116.91,116.91,0,0,0,38.15,21.16,150,150,0,0,0,36.27,7.56c7.72.63,15.45,1,23.19,1.33a67.65,67.65,0,0,0,7.65-.36c5.17-.35,10.38-.51,15.52-1.15a146.26,146.26,0,0,0,33.72-8,109.84,109.84,0,0,0,34.49-20.38A112,112,0,0,0,439,556a141,141,0,0,0,9.86-26,157.77,157.77,0,0,0,5-30.22,16.2,16.2,0,0,0-.23-2.44C362.88,518.54,272.58,517.09,182.21,493.66Zm-92.74-109c-1.54,2.47-3,4.65-4.3,6.92A39.52,39.52,0,0,0,80,415.11c.2,2.19.46,2.44,2.61,2.52,7.35.26,14.7.42,22,.82s14.67.89,22,1.58c10.57,1,21.14,2.06,31.68,3.36,14.57,1.8,29.13,3.81,43.67,5.81,10.6,1.47,21.18,3.05,31.76,4.62,13,1.95,26.05,3.85,39.05,5.93,16.08,2.58,32.13,5.33,48.2,7.95a16.16,16.16,0,0,0,4.95.19c10.09-1.57,20.16-3.29,30.24-4.94q14.17-2.32,28.37-4.58c8.91-1.39,17.83-2.71,26.75-4,8.21-1.23,16.42-2.46,24.64-3.63,7.58-1.07,15.18-2.08,22.77-3.09q9.85-1.31,19.72-2.53c7.45-.92,14.89-1.86,22.35-2.67,7.07-.77,14.14-1.44,21.22-2.08s14.32-1.35,21.49-1.72c7.58-.4,15.18-.43,22.77-.63.68,0,1.37-.12,2-.17,2.91-10.21-2.28-26-10-33.72-.07,0-.16.06-.2.11a8.47,8.47,0,0,0-.58.76,43.5,43.5,0,0,1-18.11,16,279,279,0,0,1-34.51,14.26,223.92,223.92,0,0,1-56,11.14,199.15,199.15,0,0,1-22.53.27A225.29,225.29,0,0,1,394.64,423a246.73,246.73,0,0,1-59.41-19.67,52.12,52.12,0,0,1-12.9-8.64c-.52-.47-1.08-.9-1.53-1.27-2.5,1.45-4.79,2.93-7.2,4.14a266.32,266.32,0,0,1-34.24,14.3,223.21,223.21,0,0,1-59.52,11.6,204.78,204.78,0,0,1-32.09-.7,234.32,234.32,0,0,1-26.23-4.18c-17.87-3.9-34.91-10.22-51.59-17.6a49.22,49.22,0,0,1-18-13.28Zm128.13-50.5c-.59-.07-1.6-.23-2.62-.32-4.37-.39-8.75-.71-13.12-1.14-5.41-.54-10.8-1.14-16.19-1.73-6.35-.69-12.71-1.34-19-2.12-6.82-.83-13.62-1.76-20.42-2.71-7.34-1-14.68-2.12-22-3.2-3.55-.52-7.08-1.24-10.65-1.56-8.09-.72-14.18-4.48-18.28-11.48-.35-.6-.71-1.19-1.31-2.19-1,2.15-1.88,3.92-2.63,5.73-3.8,9.08-5.72,18.46-4.15,28.31,1,6.38,3.64,11.91,9,15.85,4.5,3.31,8.82,3.28,13.18-.21,2.11-1.7,4-3.72,6-5.53a70.72,70.72,0,0,1,6.56-5.59,16.85,16.85,0,0,1,13.22-2.79A26.66,26.66,0,0,1,148,350c3.11,2.75,5.93,5.82,8.94,8.69s5.77,5.79,9,8.29c5.36,4.2,11.52,5.21,18.14,3.66a39.58,39.58,0,0,0,17.33-9.31C207.63,355.79,212.42,349,217,342,218.52,339.65,220,337.43,217.6,334.18ZM548,317c-.73.49-1.07.69-1.37.93a22.47,22.47,0,0,1-10.88,4.66c-1.42.22-2.86.26-4.28.46-7.19,1-14.37,2.1-21.56,3.1-6.71.93-13.43,1.83-20.16,2.66-6.26.77-12.53,1.46-18.79,2.14-5.24.56-10.48,1.08-15.72,1.59-6.36.6-12.72,1.2-19.08,1.74-4.85.4-9.71.69-14.57,1.06a6.62,6.62,0,0,0-1.36.38c0,1.43,0,2.78,0,4.12.07,1.59.22,3.18.39,4.77.61,5.63,1.13,11.28,1.91,16.89a25.88,25.88,0,0,0,3.83,10.5,13.84,13.84,0,0,0,12,6.72,20.79,20.79,0,0,0,11.12-3.22,49.29,49.29,0,0,0,10.46-8.74c4.12-4.36,8.07-8.87,12.21-13.2a53.1,53.1,0,0,1,15.4-11.66c9.42-4.5,18.4-3.83,26.84,2.43a50.77,50.77,0,0,1,4.78,4c2.55,2.42,5,5,7.5,7.43,1.89,1.83,3.8,3.66,5.83,5.34a22.38,22.38,0,0,0,9.79,4.83c5.41,1.13,9.8-1,11.79-6.12a21.69,21.69,0,0,0,1.46-6.74c.46-9.7-1.56-19.05-4.61-28.2C550.08,322.31,549,319.81,548,317Zm-175,21.09c-1.3,0-2.09,0-2.87,0-5.12.13-10.23.33-15.34.39-25,.28-50.05.45-75.05-.76q-19-.92-38.07-1.92c-3.27-.17-6.53-.43-9.81-.55-2.46-.09-4.35,2.86-3.37,5.15a21.11,21.11,0,0,0,5.88,7.78,74.27,74.27,0,0,1,10.64,11.35,60.54,60.54,0,0,0,4.32,5.14A40.41,40.41,0,0,0,264.09,375a21.83,21.83,0,0,0,18.33-.73c2.29-1.14,4.48-2.47,6.65-3.82s4.05-2.87,6.19-4.1a78.49,78.49,0,0,1,8.91-4.64,18.14,18.14,0,0,1,11.48-1.29,67,67,0,0,1,8.43,2.64c3.27,1.28,6.38,2.94,9.63,4.28a20.66,20.66,0,0,0,20.71-2.22,38.35,38.35,0,0,0,4.13-3.28c5.34-4.9,9-10.94,11.9-17.52C371.28,342.43,372,340.49,372.93,338.1Z" transform="translate(-13.21 -25.99)"/></svg>