<svg id="Capa_1" data-name="Capa 1" xmlns="http://www.w3.org/2000/svg" viewBox="0 0 494.87 42.36"><path d="M4.29,0h9.1V18.85h.15L22.13,0h9.54l-9.3,20.48,8.91,19.6h-10L13.54,23.42h-.15V40.08H4.29Z" transform="translate(-4.29 1.17)"/><path d="M36.54,0h9.09V40.08H36.54Z" transform="translate(-4.29 1.17)"/><path d="M54.52,0h9.1V18.85h.15L72.36,0H81.9L72.6,20.48l8.91,19.6h-10L63.77,23.42h-.15V40.08h-9.1Z" transform="translate(-4.29 1.17)"/><path d="M87-1.17h7.38V2.76q0,8.18-4.5,12.22l-2.52-2.82a11.17,11.17,0,0,0,2.7-5.95H87Z" transform="translate(-4.29 1.17)"/><path d="M103.1,39.33V30q4.32,2.52,7.26,2.52a3.77,3.77,0,0,0,2.71-.94,3.31,3.31,0,0,0,1-2.51,3.66,3.66,0,0,0-.8-2.25,15.14,15.14,0,0,0-2.75-2.55,31.05,31.05,0,0,1-6.83-6.71,12,12,0,0,1-2.11-6.92,11.47,11.47,0,0,1,3.27-8.47,11.45,11.45,0,0,1,8.47-3.27A18.9,18.9,0,0,1,120.93.54v9q-4.05-2.22-6.57-2.22a4,4,0,0,0-2.66.82,2.82,2.82,0,0,0-1,2.27c0,1.68,1.52,3.57,4.54,5.67a27.54,27.54,0,0,1,5.48,5.24,12,12,0,0,1,2.77,7.82,11.29,11.29,0,0,1-3.63,8.6,12.9,12.9,0,0,1-9.22,3.41A17.32,17.32,0,0,1,103.1,39.33Z" transform="translate(-4.29 1.17)"/><path d="M145.1,0h9.1V14.86h8.07V0h9.1V40.08h-9.1V23.42H154.2V40.08h-9.1Z" transform="translate(-4.29 1.17)"/><path d="M193,41.07q-7.28,0-11.08-5.57t-3.81-16.08q0-9.69,3.82-15.11a12.35,12.35,0,0,1,10.68-5.42q7.29,0,11.15,5.43t3.86,15.53q0,10.08-3.8,15.65A12.33,12.33,0,0,1,193,41.07ZM192.69,8q-4.94,0-4.93,11.55,0,7.46,1.25,9.94A3.91,3.91,0,0,0,192.63,32a4.26,4.26,0,0,0,3.91-2.49c.92-1.66,1.37-4.91,1.37-9.75Q197.91,8,192.69,8Z" transform="translate(-4.29 1.17)"/><path d="M214.15,0h9.34V28.22a4.5,4.5,0,0,0,1,3.14,4,4,0,0,0,5.72-.08,5,5,0,0,0,1.07-3.39V0h9.27V26.3a22,22,0,0,1-1.41,8.62A9.59,9.59,0,0,1,235,39.68a16,16,0,0,1-7.67,1.51q-7.26,0-10.24-3.72t-3-12.58Z" transform="translate(-4.29 1.17)"/><path d="M248.83,39.33V30q4.32,2.52,7.26,2.52a3.76,3.76,0,0,0,2.71-.94,3.31,3.31,0,0,0,1-2.51,3.66,3.66,0,0,0-.8-2.25,15,15,0,0,0-2.74-2.55,30.83,30.83,0,0,1-6.83-6.71,12,12,0,0,1-2.12-6.92,11.47,11.47,0,0,1,3.27-8.47A11.45,11.45,0,0,1,259-1.11,18.9,18.9,0,0,1,266.66.54v9q-4.05-2.22-6.57-2.22a4,4,0,0,0-2.66.82,2.82,2.82,0,0,0-1,2.27q0,2.52,4.53,5.67a27.54,27.54,0,0,1,5.48,5.24,12,12,0,0,1,2.78,7.82,11.3,11.3,0,0,1-3.64,8.6,12.89,12.89,0,0,1-9.21,3.41A17.33,17.33,0,0,1,248.83,39.33Z" transform="translate(-4.29 1.17)"/><path d="M275.76,0h18.4V8.53h-9.3v7.38h8.07v8.32h-8.07v7.29h9.36v8.56H275.76Z" transform="translate(-4.29 1.17)"/><path d="M316.47,0h9.25q8.07,0,11.62,3.17a10.34,10.34,0,0,1,3.54,8.06q0,5.28-5.16,8.5,5.85,2.31,5.85,8.79a10.61,10.61,0,0,1-3.63,8.38,14,14,0,0,1-9.58,3.18H316.47Zm9.1,7.69v8.64q6.09-.15,6.09-4.23a3.75,3.75,0,0,0-1.45-3.39A9,9,0,0,0,325.57,7.69Zm0,15.91v8.67a10.94,10.94,0,0,0,5.18-1.06,3.54,3.54,0,0,0,1.72-3.32q0-4.29-6.15-4.29Z" transform="translate(-4.29 1.17)"/><path d="M347,0h9.34V28.22a4.5,4.5,0,0,0,1.05,3.14,4,4,0,0,0,5.72-.08,5,5,0,0,0,1.07-3.39V0h9.27V26.3a22,22,0,0,1-1.41,8.62,9.55,9.55,0,0,1-4.16,4.76,16,16,0,0,1-7.67,1.51q-7.26,0-10.23-3.72t-3-12.58Z" transform="translate(-4.29 1.17)"/><path d="M381.71,0h10.6q6.42,0,10.15,3.3a11.4,11.4,0,0,1,3.72,9,12.08,12.08,0,0,1-1.41,5.63,9.28,9.28,0,0,1-4.12,4.1l7.27,18.07h-9.61L391,21.83h-.15V40.08h-9.1Zm9.1,7.75v9.51q6-.12,6-4.23a5,5,0,0,0-1.39-4A7.47,7.47,0,0,0,390.81,7.75Z" transform="translate(-4.29 1.17)"/><path d="M440.62,17.62v6.73q0,7.8-3.77,12.26a12.81,12.81,0,0,1-10.32,4.46q-7.32,0-11.31-5.51t-4-15.71q0-10.31,4-15.63t11.63-5.33q8.6,0,12.43,9.16l-8.67,3.57a12.27,12.27,0,0,0-2-2.81A3.57,3.57,0,0,0,426,7.93a4,4,0,0,0-3.91,2.89c-.78,1.94-1.16,5.06-1.16,9.39q0,6,1.31,8.87a4.33,4.33,0,0,0,4.15,2.83q4.57,0,4.72-6.51h-4.24V17.62Z" transform="translate(-4.29 1.17)"/><path d="M447.31,0h18.4V8.53h-9.3v7.38h8.07v8.32h-8.07v7.29h9.36v8.56H447.31Z" transform="translate(-4.29 1.17)"/><path d="M473,0h10.6Q490,0,493.7,3.3a11.4,11.4,0,0,1,3.72,9A12.08,12.08,0,0,1,496,17.91a9.28,9.28,0,0,1-4.12,4.1l7.27,18.07h-9.61L482.2,21.83h-.15V40.08H473Zm9.1,7.75v9.51q6-.12,6-4.23a5,5,0,0,0-1.4-4C485.75,8.24,484.21,7.81,482.05,7.75Z" transform="translate(-4.29 1.17)"/></svg>