<svg id="Capa_1" data-name="Capa 1" xmlns="http://www.w3.org/2000/svg" viewBox="0 0 300 300"><path d="M0,157V142.67a3.55,3.55,0,0,0,.26-.73c.44-4.48.76-9,1.33-13.44a142,142,0,0,1,12.89-43A149.45,149.45,0,0,1,48.14,39.91,147.56,147.56,0,0,1,96.2,9.9,149.31,149.31,0,0,1,163.37.6,149.81,149.81,0,0,1,289.94,95.81a149.79,149.79,0,0,1,9.5,67.13,148.58,148.58,0,0,1-29.81,77.67,149.51,149.51,0,0,1-41.3,37.44,147.12,147.12,0,0,1-69.18,21.67,150.72,150.72,0,0,1-41.47-3.17,146.76,146.76,0,0,1-52-22.42A149.86,149.86,0,0,1,18.81,222.9,145.14,145.14,0,0,1,.61,163C.45,161,.21,159,0,157Zm138-38.67c0,14.41,0,28.82,0,43.23a8,8,0,0,0,2.75,6.52,81.75,81.75,0,0,0,9.64,7.41c13.62,8.4,27.36,16.61,41.06,24.88,4.74,2.86,9.39,5.89,14.27,8.48a10,10,0,0,0,11.49-1.1c3.78-3,5.63-6.93,4.49-11.89s-4.43-7.77-8.52-10.13q-24.56-14.12-49.07-28.31a2,2,0,0,1-1.19-2q0-23.9,0-47.8c0-11.2.06-22.4-.08-33.6-.09-6.81-7.22-12.44-13.93-11.46A12.86,12.86,0,0,0,138,75.46C138.14,89.76,138,104.06,138,118.36Z" transform="translate(0 0)"/></svg>